<svg xmlns="http://www.w3.org/2000/svg"><style>:root svg:not(:target){display:none}</style><svg fill="none" id="hero-image" viewBox="0 0 508 444"><path d="M337.458 158.545c.457-.173.906-.345 1.349-.547a.52.52 0 0 1 .763.575.524.524 0 0 1-.239.317c-.397.277-.749.577-1.146.884-.398.308-.84.787-1.417.562a.75.75 0 0 1-.487-.862c.082-.599.689-.742 1.177-.929Zm-3.703-34.108c-2.106-.42-4.219.098-6.347.135-1.177 0-2.391 0-3.605-.105a14.984 14.984 0 0 0 8.356-3.253.519.519 0 0 0-.083-.778.53.53 0 0 0-.277-.092c-1.886.06-3.762.311-5.598.75a13.086 13.086 0 0 0 5.478-3.748.42.42 0 0 0-.404-.69 31.12 31.12 0 0 0-5.951 1.784c.397-1.814-.584-3.546-3.08-3.433-7.09.315-14.951 2.571-21.479 5.247a.205.205 0 0 0-.112.097.197.197 0 0 0-.016.147.2.2 0 0 0 .088.119.2.2 0 0 0 .145.027c4.362-.615 8.648-1.499 12.98-2.286a41.045 41.045 0 0 1 5.763-.967c1.544-.053 2.938-.368 3.463 1.454v.382a44.286 44.286 0 0 1-8.469 1.619c-5.141.488-10.417-.337-15.506.42a.232.232 0 0 0-.052.42c4.219 1.889 9.473 2.114 14.239 1.807l.173.045a7.644 7.644 0 0 0-.6 3.98c.093 2.115.359 4.218.794 6.289l-.262-.165a29.713 29.713 0 0 1-5.943-4.43c-2.81-2.826-5.246-6.252-9.076-7.698-.284-.105-.539.262-.389.502 3.462 5.584 10.005 14.482 17.237 15.105.293.65.477 1.344.547 2.054.097.749.554 2.114 1.544 1.356.846-.652.427-2.121 0-2.893a3.426 3.426 0 0 0-.435-.645c.442.157.871.351 1.281.577.802.458 1.552 1.095 2.511 1.147a.495.495 0 0 0 .495-.494c-.135-1.874-2.518-2.864-4.497-2.916a19.381 19.381 0 0 0 2.751-5.105 16.08 16.08 0 0 0 1.206-5.083c4.07 1.852 9.743 3.156 13.318.173a.482.482 0 0 0-.188-.855Zm1.394-10.097a.75.75 0 0 1-.592 0c-2.248 1.252-6.745-1.777-8.753-2.557-2.998-1.191-6.168-2.398-9.323-3.425h-.06c-4.917 0-9.84.524-14.734-.195-.397-.06-.315-.622 0-.75 7.914-2.698 17.289-2.534 25.443-1.087 2.751.488 7.412.975 8.994 3.688.974 1.68.727 3.576-.975 4.348v-.022Zm-8.393-5.128.412.173-.308-.158-.104-.015Zm-36.461-11.866c7.765-10.195 19.081-18.936 22.304-31.822a.24.24 0 0 0-.458-.127c-3.867 12.968-16.967 19.693-22.483 31.559a.375.375 0 0 0 .607.39h.03Zm40.912-32.879c5.366 5.93 8.829 13.171 11.032 20.817.12.42.854.36.794-.105a39.148 39.148 0 0 0-7.914-18.838 43.677 43.677 0 0 0-7.839-7.93c-3.252-2.557-7.067-4.686-9.308-8.246a.265.265 0 0 0-.16-.123.258.258 0 0 0-.2.025.26.26 0 0 0-.123.16.273.273 0 0 0-.007.103.28.28 0 0 0 .033.097c3.05 6.05 9.241 9.1 13.692 14.04Zm-5.875-24.602c-.195-.285.254-.525.457-.262 6.213 8.08 15.903 12.646 23.742 18.867 7.494 5.945 13.28 13.719 14.045 23.494a.475.475 0 0 1-.585.48c1.694 5.142 2.451 10.726.892 15.741a.43.43 0 0 1-.457.271.427.427 0 0 1-.368-.383c-.397-8.448-1.154-15.795-5.321-23.366-3.687-6.701-8.828-12.556-13.977-18.17-6.857-4.97-13.542-9.588-18.428-16.672Zm22.85 20.067a58.462 58.462 0 0 1 11.901 15.592 60.795 60.795 0 0 1 1.499 3.201c-2.661-7.766-7.195-13.62-13.4-18.793Zm-99.158 12.781c2.503-6.11 4.796-12.376 7.876-18.223-1.499-5.12 12.448-.225 13.917.18a.975.975 0 0 1 .577 1.41 103.723 103.723 0 0 0-8.768 21.498c-.442 1.567-.877 5.12-2.623 5.915-1.746.794-4.497-1.155-5.996-1.754-1.633-.667-5.171-1.432-6.19-3.141-1.019-1.71.54-4.228 1.207-5.885Zm1.251 5.398c1.087 1.229 5.164 1.896 6.79 2.518 1.836.697 1.904.9 2.646-1.004.494-1.275.749-2.646 1.146-3.958.667-2.377 1.394-4.738 2.249-7.047a74.515 74.515 0 0 1 5.995-12.466c-3.155-1.034-9.548-3.246-11.077-1.147a.687.687 0 0 1-.457.255c-1.446 4.76-3.402 9.34-5.246 13.958-.862 2.144-3.927 6.8-2.008 8.913l-.038-.022Zm-50.557 173.012c.382-.75.435-2.167.817-2.781.892-1.432 4.062-.975 5.448-.945 3.748.083 7.6 1.5 11.287 1.072a.878.878 0 0 0 .232-1.709 38.498 38.498 0 0 0-16.075-1.986c-3.553.322-4.324 2.593-3.523 6.117a1.003 1.003 0 0 0 1.392.61c.174-.083.321-.214.422-.378Zm-10.492 4.985a116.371 116.371 0 0 1 23.585-3.298.536.536 0 0 0 .496-.459.529.529 0 0 0-.354-.576 33.304 33.304 0 0 0-18.901 1.327 7.497 7.497 0 0 0 .75-1.994c.359-1.102.809-2.466.419-3.606a.462.462 0 0 0-.749-.202c-1.132.937-1.424 2.811-1.731 4.168-.098.419-.435 1.776.142 2.099a32.718 32.718 0 0 0-3.897 1.881.357.357 0 0 0-.124.181.356.356 0 0 0 .133.396.371.371 0 0 0 .208.068l.023.015Zm42.456-7.174a1.02 1.02 0 0 0-.99-.989 1.006 1.006 0 0 0-.989.989 2.257 2.257 0 0 1-.749 1.927.87.87 0 0 0-.353.562 28.759 28.759 0 0 0-9.173.629c-.554.143-.374.877.128.93 5.246.6 10.387.525 15.581 1.866 5.193 1.342 9.69 3.681 14.389 6.155a.957.957 0 0 0 1.288-.359.958.958 0 0 0-.321-1.298 44.956 44.956 0 0 0-19.958-7.736 3.092 3.092 0 0 0 1.132-2.691l.015.015Zm10.117 4.693a.503.503 0 0 0 .217-.825c-.831-1.042-2.046-1.177-3.297-1.432a10.504 10.504 0 0 0-3.56-.345.404.404 0 0 0-.283.286.407.407 0 0 0 .103.389c.985.682 2.08 1.19 3.238 1.499 1.191.398 2.353.922 3.567.42l.015.008Zm37.712 21.686c-2.158-2.706-5.036-4.633-7.839-6.612-3.088-2.173-6.153-4.437-9.586-6.049a.399.399 0 0 0-.507.105.398.398 0 0 0 .028.517c2.488 2.676 5.463 4.828 8.364 7.017 2.9 2.189 5.718 4.452 9.128 5.734.442.165.629-.427.397-.719l.015.007Zm54.627 77.758a6.457 6.457 0 0 0-2.579.99 4.438 4.438 0 0 0-2.098 1.859.317.317 0 0 0-.042.141c-.004.05.004.1.023.146a.336.336 0 0 0 .214.193 4.34 4.34 0 0 0 2.743-.345 6.488 6.488 0 0 0 2.45-1.267 1.01 1.01 0 0 0-.158-1.543 1.019 1.019 0 0 0-.553-.174Zm-33.148 37.864c1.281 2.938 3.095 6.746 5.898 7.953a.705.705 0 0 0 1.019-.75c-.435-1.746-1.544-2.736-2.555-4.235a36.21 36.21 0 0 1-2.878-5.247 1.153 1.153 0 0 0-1.574-.413c-4.317 3.276-8.948 5.683-13.752 8.134-.795.405-.188 1.544.577 1.342a45.318 45.318 0 0 0 13.265-6.807v.023Zm1.933-26.102a6.04 6.04 0 0 0 .697 2.024 1.082 1.082 0 0 0 1.334.435 1.088 1.088 0 0 0 .622-1.26 6.127 6.127 0 0 0-.884-1.949.97.97 0 0 0-1.183-.364.972.972 0 0 0-.586 1.091v.023Zm10.882-33.306c1.439 3.179 3.65 6.807 6.243 9.168.937.847 2.698-.307 1.851-1.432-1.079-1.432-2.42-2.668-3.597-4.033-1.177-1.364-2.413-2.931-3.665-4.355-.42-.502-1.064.12-.832.637v.015Zm-102.523-62.586a.325.325 0 0 0-.401.229.326.326 0 0 0 .229.401c11.151 4.423 23.33 6.117 34.346 10.81a.71.71 0 0 0 .904-.182.708.708 0 0 0-.049-.92c-3.68-3.921-9.9-4.498-14.869-5.802a199.99 199.99 0 0 0-20.16-4.558v.022Zm59.685 30.982a.433.433 0 0 0 .75-.427c-10.492-22.234-30.96-39.318-56.411-39.498a.504.504 0 0 0-.502.503.503.503 0 0 0 .502.502c3.288.245 6.547.774 9.743 1.582a.877.877 0 0 0-.397.794c.086.812.086 1.632 0 2.444-.112.645-.592 1.394-.42 2.039a.442.442 0 0 0 .315.315c.997.225 1.806-.997 2.143-1.792a3.853 3.853 0 0 0-.105-3.396 59.97 59.97 0 0 1 7.285 2.572 19.185 19.185 0 0 0-1.094 6.836c0 .337.509.517.674.18a19.399 19.399 0 0 0 1.829-6.394c14.959 6.821 27.16 19.482 35.688 33.725v.015Zm-110.452 38.726c3.223 4.797 8.941 7.316 14.322 8.913a1.397 1.397 0 0 0 1.678-.952c1.424-3.981 2.848-7.961 4.25-11.949.922-2.617 3.605-7.039 2.9-9.82-.584-2.302-4.257-3.126-6.1-3.981a96.646 96.646 0 0 0-11.332-4.7c-.554-.172-.817.6-.382.899a83.286 83.286 0 0 0 8.581 4.955c1.499.75 2.938 1.5 4.414 2.249 2.054 1.042 2.099.817 1.574 2.999-1.394 5.809-3.987 11.604-6.048 17.241-4.751-1.612-8.581-4.363-13.01-6.747-.51-.224-1.207.323-.847.893Zm11.286-4.678c-3.275-1.792-6.602-3.433-9.93-5.135a.392.392 0 0 0-.486.163.387.387 0 0 0 .097.504c3.485 2.474 6.895 4.993 10.492 7.324a1.221 1.221 0 0 0 1.784-.75c.614-2.204 2.72-6.356.809-8.358-1.049-1.094-2.773-1.769-4.055-2.549-1.948-1.192-3.874-2.481-5.905-3.523a1.198 1.198 0 0 0-1.682 1.336c.063.293.232.552.475.726 2.391 1.701 5.014 3.126 7.495 4.64 1.371.832 1.918.922 1.641 2.541a29.574 29.574 0 0 1-.727 3.081h-.008Zm-5.995 3.681c-.63.127-.397.967.142 1.034 1.762.21 3.155 1.334 4.804 1.874a.4.4 0 0 0 .488-.281.39.39 0 0 0-.001-.206c-.622-2.361-3.365-2.849-5.463-2.429l.03.008Zm-.457-31.912a577.437 577.437 0 0 0 12.545 7.159c3.748 2.077 7.667 4.948 11.946 5.607a.496.496 0 0 0 .618-.539.495.495 0 0 0-.138-.285c-2.93-3.464-7.817-5.315-11.804-7.287a181.62 181.62 0 0 0-12.74-5.659c-.622-.233-.974.697-.457.997l.03.007Zm21.876 2.099c.352.21.667-.195.517-.517-1.859-4.071-6.273-5.847-10.44-6.454a.499.499 0 0 0-.602.353.502.502 0 0 0 .333.614c3.762 1.356 6.745 4.01 10.162 6.004h.03Zm-10.2 8.853c-.749.135-.577 1.349.18 1.327a5.143 5.143 0 0 1 2.466.547 4.945 4.945 0 0 0 2.031.75.515.515 0 0 0 .509-.51c-.037-.974-1.116-1.702-1.963-1.979a6.651 6.651 0 0 0-3.253-.135h.03Zm63.957-25.09c8.806 3.486 17.942 7.054 26.298 11.575-.749-2.024-1.596-4.033-2.451-5.997-.194-.458.42-.855.682-.398a101.848 101.848 0 0 1 13.49 46.004l.405.143a1.498 1.498 0 0 1-.307 2.901 92.554 92.554 0 0 1-1.567 18.883c-.105.547-.996.412-.966-.128.347-6.436.372-12.886.075-19.325-2.069-.622-4.1-1.364-6.138-2.054-.525-.18-3.538-1.499-4.04-1.357-1.042.338-1.671 2.894-1.978 3.749-1.866 5.067-3.695 10.149-5.531 15.224-1.919 5.308-3.815 10.63-5.831 15.907-1.094 2.864-1.933 7.122-4.789 8.771a.506.506 0 0 1-.585-.147.506.506 0 0 1-.022-.603c2.204-2.211 2.878-7.054 3.845-9.932a565.775 565.775 0 0 1 2.893-8.344c1.953-5.552 3.912-11.104 5.875-16.656.967-2.744 1.739-5.675 2.901-8.336.464-1.064.891-2.001 2.098-2.346 1.664-.472 3.747.637 5.246 1.094 1.934.577 3.897 1.117 5.838 1.732a128.145 128.145 0 0 0-1.401-11.694 136.87 136.87 0 0 0-6.58-23.988l-1.289 1.409c-.795 6.649-2.998 13.298-4.827 19.708a712.54 712.54 0 0 1-3.192 11.042c-.862 2.893-1.364 6.087-3.26 8.478-.592 1.754-2.743 2.324-4.722 1.926a36.729 36.729 0 0 1-4.272-1.162l-4.624 13.344c-.892 2.563-1.416 7.856-4.819 8.246-1.768.224-3.919-.645-5.658-1.012-2.421-.525-4.811-1.177-7.187-1.867-4.969-1.439-9.87-3.126-14.704-4.97a192.073 192.073 0 0 1-27.25-12.744c-1.641-.944-.359-3.328 1.274-2.803 7.495-21.859 17.29-43.111 26.306-64.378a1.302 1.302 0 0 1 1.776-.464c4.452 2.781 9.578 3.86 14.524 5.434 4.946 1.575 9.698 3.246 14.464 5.135Zm-35.726 25.345c2.316.75 4.61 1.619 6.888 2.519.749-6.402 3.192-12.316 6.273-17.946a1.054 1.054 0 0 1 1.424-.375c3.919 2.039 7.786 4.19 11.638 6.349.284-.757.63-1.489 1.035-2.189a.602.602 0 0 1 .262-.232c-7.172-2.054-14.135-4.498-20.145-9.145a789.412 789.412 0 0 1-7.375 21.019Zm46.466-6.207c-.63 3.134-2.249 6.432-3.155 9.22-1.499 4.446-2.998 8.876-4.497 13.306a1.5 1.5 0 0 1-1.776 1.012 5997.786 5997.786 0 0 1-20.835-8.193c-.352.75-.704 1.567-1.041 2.354-.75 1.686-1.379 3.523-2.069 5.359.817.353 1.619.69 2.391.99 4.437 1.679 8.873 3.351 13.332 4.962 3.768 1.365 7.542 2.707 11.324 4.026l1.499-4.348 9.263-26.746a53.4 53.4 0 0 0-4.459-1.942h.023Zm-35.764.667a174.616 174.616 0 0 1 13.176 4.243 149.65 149.65 0 0 1 5.77 2.249c.93.375 1.881.862 2.833 1.169 1.596.525 1.297.18 2.248-.877.4-.604.792-1.211 1.177-1.821.58-.5.492-.81-.262-.93-.495-.749-2.316-1.297-3.163-1.769l-4.811-2.691c-.053.217-.098.435-.158.652a1.207 1.207 0 0 1-1.116.855.985.985 0 0 1-.585-.158 1.203 1.203 0 0 1-.532-1.311c.067-.42.15-.825.247-1.237-3.702-2.069-7.427-4.123-11.084-6.275a67.99 67.99 0 0 0-3.762 7.894l.022.007Zm-3.042 8.351c2.465.982 4.909 1.994 7.329 2.931a52.721 52.721 0 0 1 3.358-6.327 220.698 220.698 0 0 0-8.544-2.631c-.779 1.987-1.469 3.996-2.173 6.027h.03Zm35.973-10.045c-4.984-1.701-10.148-2.998-15.229-4.393a.584.584 0 0 1 .083.315 23.29 23.29 0 0 1-.293 2.946l4.22 2.354c1.559.87 5.096 1.934 5.995 3.576.75 1.439 0 2.294-.787 3.598-.704 1.162-1.618 3.456-3.185 3.875-1.948.525-4.991-1.589-6.745-2.248a183.224 183.224 0 0 0-7.816-2.834 59.608 59.608 0 0 1-2.571 6.702 4121.726 4121.726 0 0 1 19.223 7.406c1.387-4.175 2.766-8.351 4.182-12.511.929-2.736 1.581-6.05 2.9-8.786h.023Zm-44.509 9.625a1660.285 1660.285 0 0 1-5.246 14.071c1.703.609 3.399 1.229 5.088 1.859.577-1.844 1.214-3.673 1.956-5.443a.648.648 0 0 1 .77-.387.642.642 0 0 1 .467.725 79.863 79.863 0 0 1-1.102 5.892c2.323.884 4.639 1.794 6.947 2.728a29.612 29.612 0 0 1 1.357-3.65c-2.616-1.042-5.156-2.249-6.902-4.063a.277.277 0 0 1 .194-.465c2.571 0 5.247.96 7.855 2.054.569-1.184 1.139-2.354 1.641-3.493.577-1.32 1.154-2.669 1.739-4.011-4.804-1.889-9.953-3.643-14.764-5.817Zm11.991 23.681-2.488-1.005a.854.854 0 0 1-1.117-.449 406.167 406.167 0 0 0-7.082-2.752c-.75 2.999-1.499 6.057-2.249 9.071a89.495 89.495 0 0 1 30.195 9.887c.622-2.308 1.394-4.82 1.364-7.099-6.415-2.039-12.485-5.097-18.653-7.661l.03.008Zm-14.502-24.895c-1.117-.562-2.248-1.162-3.275-1.799-3.38 8.246-6.812 16.491-10.455 24.625l3.043 1.439c.135.068 1.319.817 1.334.81.247-.105.622-1.5.749-1.867.795-2.189 1.499-4.498 2.796-6.454a1.133 1.133 0 0 1-.105-1.005 1325.116 1325.116 0 0 0 5.883-15.757l.03.008Zm42.531 28.62c-2.848-1.064-5.666-2.293-8.372-3.313-5.111-1.919-10.214-3.89-15.266-5.997-1.034-.427-2.166-.832-3.335-1.259a30.075 30.075 0 0 1-1.753 3.59l2.091.863c5.995 2.518 12.305 5.022 17.776 8.56.249-.129.534-.172.81-.12l.389.068a1.324 1.324 0 0 1 .96.959c.569 3.066-1.237 6.994-1.934 10a1.327 1.327 0 0 1-1.933.787 84.38 84.38 0 0 0-31.897-10.809 1.221 1.221 0 0 1-.93-.476 1.21 1.21 0 0 1-.216-1.023c.832-3.509 1.626-7.077 2.6-10.593a585.203 585.203 0 0 0-6.385-2.331 23.861 23.861 0 0 1-1.177 4.865c-.419 1.327-.622 3.343-1.558 4.423-.787.899-1.806.749-2.811.367-1.499-.615-2.96-1.297-4.429-1.956-.5 1.099-.999 2.194-1.499 3.283a236.047 236.047 0 0 0 24.597 11.364 215.094 215.094 0 0 0 12.103 4.251c2.144.684 4.295 1.344 6.453 1.979 2.008.592 4.377 1.791 6.468 1.949.999.669 1.733.434 2.203-.705a2.806 2.806 0 0 0 1.139-1.732c.474-1.131.877-2.29 1.207-3.47l2.405-6.942 2.294-6.582Zm21.456-40.479v-.225c-9.353-3.666-18.294-8.471-27.639-12.189a216.675 216.675 0 0 0-15.154-5.42c-3.859-1.221-7.629-2.436-11.129-4.43-4.444 10.36-8.649 20.855-12.928 31.312 1.194.245 2.386.532 3.575.862a1146.76 1146.76 0 0 0 8.064-22.863 1.393 1.393 0 0 1 2.293-.608c10.357 9.086 24.529 10.495 37.315 14.798.097-.128.202-.263.307-.382.502-.578 1.349-.068 1.394.577v.405a56.336 56.336 0 0 1 6.513 2.796 1.33 1.33 0 0 1 .607 1.499l-11.062 31.941-.12.352.262.09c.865.394 1.766.702 2.691.922 1.739.21 1.364-.232 2.705-.967.36-.194.308-.479.75-.599h.18c.389-2.646 1.611-5.33 2.36-7.804a728.083 728.083 0 0 0 3.043-10.337c1.904-6.597 3.29-13.516 5.951-19.775l.022.045Zm-23.66 75.906c2.249.21 2.901-1.229 3.538-3.073 3.155-9.115 6.228-18.358 8.993-27.601.487-1.657-1.986-2.286-2.556-.705-2.788 7.691-5.156 15.555-7.741 23.314-.443 1.319-1.005 4.677-2.249 5.059-1.041.323-4.429-1.499-5.516-1.836a946.433 946.433 0 0 1-11.691-4.003c-15.288-5.352-30.3-11.567-45.716-16.439a.483.483 0 0 0-.56.284.486.486 0 0 0 .186.6c16.18 8.374 33.642 14.363 50.842 20.24 3.822 1.364 8.393 3.778 12.47 4.16Zm-82.138-36.034c2.998 1.867 5.89 3.793 8.723 5.885 2.526 1.859 4.947 3.426 8.102 3.83.389.053.487-.524.187-.704a99.266 99.266 0 0 1-8.888-6.417c-2.421-1.829-4.827-3.343-7.952-3.231a.342.342 0 0 0-.302.464c.025.067.07.125.13.166v.007Zm9.24 33.733c3.635-3.433 5.794-9.632 5.823-14.557 0-.428-.637-.638-.831-.225-1.065 2.211-1.814 4.542-2.751 6.814-1.019 2.481-2.308 4.94-2.998 7.548a.441.441 0 0 0 .15.6.437.437 0 0 0 .6-.15l.007-.03Zm4.017 9.205c4.295-7.496 7.577-15.592 11.444-23.328a66.175 66.175 0 0 0 8.724 3.748c2.9.982 6.407 2.512 9.45 1.747a.916.916 0 0 0 .218-1.657c-2.346-1.581-5.629-1.656-8.342-2.466a61.123 61.123 0 0 1-9.982-3.98 1.19 1.19 0 0 0-1.612.419c-3.957 8.126-8.206 16.492-10.492 25.255a.332.332 0 0 0 .026.217.339.339 0 0 0 .37.186.34.34 0 0 0 .189-.111l.007-.03Zm37.892 7.137c1.356-1.762 2.173-3.921 3.372-5.81a39.522 39.522 0 0 1 4.684-5.944 1.495 1.495 0 0 0 .328-1.378 1.501 1.501 0 0 0-.965-1.036c-8.918-2.923-17.836-5.884-26.979-8.148-2.031-.503-4.804-1.799-6.318.202-.922 1.214-1.349 3.313-1.881 4.708a63.697 63.697 0 0 0-2.249 6.604.555.555 0 0 0 1.012.427 53.787 53.787 0 0 0 2.556-4.955c.397-.854 1.499-4.73 2.323-5.09.824-.36 3.65.645 4.549.885 1.859.502 3.747 1.027 5.561 1.574 6.19 1.814 12.313 3.816 18.429 5.855-2.901 3.178-5.951 7.181-6.565 11.244a1.167 1.167 0 0 0 1.498 1.403 1.17 1.17 0 0 0 .638-.511l.007-.03ZM190.83 380.08a.514.514 0 0 0-.595.297.51.51 0 0 0 .205.633 16.637 16.637 0 0 1 4.984 4.887c.555.905.986 1.881 1.281 2.901.278.96.255 1.829 1.042 2.511a.784.784 0 0 0 .652.216.789.789 0 0 0 .577-.373c1.342-1.822-.749-5.367-1.911-6.889a10.36 10.36 0 0 0-6.235-4.153v-.03Zm15.221 4.498c-.562-.06-1.087-.188-1.499.18-.27 0-.517.344-.337.584.09.12.052.323.112.458.064.144.156.273.27.382.313.269.677.471 1.072.592.725.38 1.56.495 2.36.322a1.247 1.247 0 0 0 .637-1.938 1.246 1.246 0 0 0-.637-.453 8.684 8.684 0 0 0-1.986-.075l.008-.052Zm3.747-9.326a11.462 11.462 0 0 0 2.848 1.5c.222.054.455.036.666-.053a1.06 1.06 0 0 0 .353-1.701c-1.319-1.627-4.496-2.392-6.497-2.249a.419.419 0 0 0-.21.749c.877.735 1.851 1.245 2.81 1.807l.03-.053Zm10.65 14.94c2.023-2.466 3.327-5.577 4.908-8.38 3.613 1.379 7.345 2.488 11.01 3.748.644.217 2.3.45 2.765.929.11.119.233.225.367.315-.094.167-.158.35-.187.54-.322 1.567-1.199 1.866-1.244 3.591a.788.788 0 0 0 .796.788.799.799 0 0 0 .396-.106c2.075-1.267 4.631-4.948 2.248-7.017-1.379-1.207-4.879-1.619-6.58-2.136-3.245-.99-6.483-2.092-9.788-2.901a1.062 1.062 0 0 0-1.177.48c-1.626 3.073-3.634 6.484-4.024 9.992a.282.282 0 0 0 .171.263.29.29 0 0 0 .162.02.293.293 0 0 0 .147-.073l.03-.053Zm8.026-1.596c1.079.479 2.091 1.049 3.283.832a.913.913 0 0 0 .616-1.098.913.913 0 0 0-.219-.401c-.795-.922-2.189-1.11-3.32-1.395a19.148 19.148 0 0 0-3.687-.667c-.488 0-.555.6-.225.832a19.998 19.998 0 0 0 3.522 1.942l.03-.045Zm41.122-74.962c-2.998 6.274-5.014 13.853-6.513 20.644a1.116 1.116 0 0 0 2.151.592c2.376-6.536 4.744-13.995 5.561-20.914.045-.615-.997-.862-1.229-.307l.03-.015Zm2.585 20.359c1.387-2.144 2.384-5.997 1.769-8.508a.376.376 0 0 0-.119-.179.383.383 0 0 0-.57.089 18.923 18.923 0 0 0-1.544 3.643 38.15 38.15 0 0 0-1.589 4.086 1.133 1.133 0 0 0 1.405 1.308 1.13 1.13 0 0 0 .618-.424l.03-.015Zm3.388 15.398a.29.29 0 0 0 .366.035.295.295 0 0 0 .091-.095l.517-.705a.971.971 0 0 0-.193-1.212.961.961 0 0 0-.384-.212 66.996 66.996 0 0 0-3.432-.937 1.212 1.212 0 0 0-1.349.547c-3.448 7.751-8.019 15.172-11.107 23.043-.457 1.17 1.244 1.657 1.881.795 4.722-6.454 7.907-14.603 11.017-21.979.922.105 2.068.232 2.563.735l.03-.015Zm-5.021 17.016a15.927 15.927 0 0 0 2.81-5.577c.749-2.122 1.716-4.498 1.596-6.747a.335.335 0 0 0-.399-.319.334.334 0 0 0-.17.087c-1.402 1.499-2.084 3.643-2.833 5.54-.862 2.181-1.739 4.362-1.679 6.746a.4.4 0 0 0 .25.355.401.401 0 0 0 .425-.085Zm3.042-.112c-.254.509-.509 1.012-.749 1.499a8.298 8.298 0 0 0-.427 1.499c-.068.3.359.51.517.217.272-.451.501-.928.682-1.424.172-.547.315-1.094.457-1.649.097-.217-.33-.427-.472-.142h-.008Zm-1.139 19.76c.892-2.324 1.604-4.708 2.488-7.032.975-2.541 2.376-4.857 3.44-7.354.105-.24-.135-.607-.412-.412-4.437 3.178-6.962 9.46-6.213 14.798.053.374.585.269.697 0Zm7.839-1.425c-.195 2.541-.749 5-.142 7.496a.669.669 0 0 0 .552.47.665.665 0 0 0 .655-.312c2.248-4.363 1.648-10.952 1.633-15.742 0-5.652-.359-11.507-1.881-16.972a.356.356 0 0 0-.15-.199.356.356 0 0 0-.464.064.357.357 0 0 0-.09.233c-.12 5.622.329 11.244.247 16.874-.03 2.706-.135 5.397-.36 8.088ZM240.705 21.222a61.708 61.708 0 0 1 13.677-6.05c3.455-1.019 7.36-2.248 10.935-1.551-3.238.524-6.071 2.803-7.862 5.584-.255.39.3.75.622.48 2.848-2.593 6.265-3.838 9.795-5.157.128.067.255.127.375.202.652.39 1.259-.36.974-.974-2.181-4.618-8.618-3.276-12.531-2.197a42.448 42.448 0 0 0-16.487 8.996c-.382.33.097.907.502.667ZM395.704 325.8l1.282 8.995h9.143v6.747h-38.222v-6.747h9.893l1.281-8.995h-19.822a10.88 10.88 0 0 1-10.867-10.869v-36.732a10.885 10.885 0 0 1 10.867-10.869h56.208a10.886 10.886 0 0 1 10.867 10.869v36.732a10.886 10.886 0 0 1-10.867 10.869h-19.763Zm-45.034-11.994h15.738v-34.482H350.67v34.482Zm17.987 0h55.458v-34.482h-55.458v34.482Zm-17.904-36.731h73.28a8.626 8.626 0 0 0-8.536-7.496h-56.208a8.623 8.623 0 0 0-8.551 7.496h.015Zm8.536 46.476h56.208a8.629 8.629 0 0 0 8.536-7.496h-73.295a8.627 8.627 0 0 0 8.521 7.496h.03Zm44.591 13.493h-33.724v2.249h33.724v-2.249ZM393.433 325.8h-12.111l-1.281 8.995h14.644l-1.252-8.995Zm-12.036-8.995h12.741v5.247h-12.741v-5.247Zm2.249 2.998h8.243v-.75h-8.243v.75Zm9.367-36.731h-19.485v2.249h19.485v-2.249Zm-16.487 8.995h24.731v-2.249h-24.731v2.249Zm14.989 4.498v-2.249h-9.743v2.249h9.743Zm3.747 0h8.993v-2.249h-8.993v2.249Zm5.995 2.998h-27.729v2.249h27.729v-2.249Zm-11.991 5.248v2.249h23.233v-2.249h-23.233Zm-31.851-29.236a2.244 2.244 0 0 0 2.205-2.687 2.258 2.258 0 0 0-.615-1.152 2.255 2.255 0 0 0-2.45-.487 2.244 2.244 0 0 0-1.388 2.078 2.25 2.25 0 0 0 2.218 2.248h.03Zm8.244 0a2.244 2.244 0 0 0 2.205-2.687 2.258 2.258 0 0 0-.615-1.152 2.255 2.255 0 0 0-2.45-.487 2.244 2.244 0 0 0-1.388 2.078 2.245 2.245 0 0 0 2.218 2.248h.03Zm7.494 0a2.253 2.253 0 0 0 2.078-1.388 2.248 2.248 0 0 0-.488-2.451 2.251 2.251 0 0 0-3.459.341 2.252 2.252 0 0 0 .269 2.829c.415.421.979.662 1.57.669h.03Zm-326.83 62.789H10.35a4.875 4.875 0 0 1-4.857-4.633 4.88 4.88 0 0 1-3.747-4.738v-54.722a4.872 4.872 0 0 1 2.788-4.408 3.749 3.749 0 0 1 1.14-2.886 2.203 2.203 0 0 1 3.042-.135 3.58 3.58 0 0 1 .884 2.557h3.185c.06-.917.461-1.779 1.125-2.414a2.203 2.203 0 0 1 3.042-.135c.618.703.936 1.621.885 2.556h2.435c.06-.917.461-1.778 1.125-2.414a2.202 2.202 0 0 1 3.042-.135 3.58 3.58 0 0 1 .885 2.557h3.185c.06-.917.46-1.779 1.124-2.414a2.203 2.203 0 0 1 3.043-.135c.618.703.935 1.621.884 2.556h3.185c.06-.917.46-1.778 1.124-2.414a2.202 2.202 0 0 1 3.043-.135c.618.704.935 1.622.884 2.557h.75a4.87 4.87 0 0 1 4.856 4.632 4.88 4.88 0 0 1 3.747 4.738v54.722a4.878 4.878 0 0 1-4.826 4.843Zm-8.304-68.965h2.713a2.534 2.534 0 0 0-.442-1.582c-1.184-1.372-2.069.495-2.27 1.582Zm-8.244 0h2.713a2.533 2.533 0 0 0-.442-1.582c-1.184-1.372-2.068.495-2.27 1.582Zm-8.244 0h2.713a2.534 2.534 0 0 0-.442-1.582c-1.184-1.372-2.068.495-2.27 1.582Zm-7.494 0h2.713a2.534 2.534 0 0 0-.442-1.582c-1.184-1.372-2.069.495-2.271 1.582Zm-8.244.075c.272-.049.548-.074.825-.075h1.896a2.534 2.534 0 0 0-.443-1.582c-1.221-1.409-2.075.585-2.293 1.657h.015Zm.825 62.143H42.59a2.622 2.622 0 0 0 2.623-2.624v-54.722a2.623 2.623 0 0 0-2.623-2.624h-4.317a4.645 4.645 0 0 0 2 2.294.567.567 0 0 1 .203.772.563.563 0 0 1-.772.203 6.45 6.45 0 0 1-2.6-3.261H30.03a4.646 4.646 0 0 0 2.001 2.294.562.562 0 0 1 .202.772.565.565 0 0 1-.771.202 6.44 6.44 0 0 1-2.601-3.261h-7.075a4.645 4.645 0 0 0 2.001 2.294.568.568 0 0 1 .203.772.563.563 0 0 1-.772.203 6.45 6.45 0 0 1-2.6-3.261h-6.326a4.645 4.645 0 0 0 2 2.294.562.562 0 0 1 .057.937.562.562 0 0 1-.626.037 6.44 6.44 0 0 1-2.6-3.261h-6.52c-.18 0-.357.017-.533.053a4.656 4.656 0 0 0 1.979 2.249.562.562 0 0 1 .202.772.565.565 0 0 1-.772.202 6.342 6.342 0 0 1-2.398-2.773 2.612 2.612 0 0 0-1.109 2.136v54.722a2.622 2.622 0 0 0 2.63 2.579h.016Zm42.343-52.848a2.625 2.625 0 0 0-1.499-2.361v52.585a4.88 4.88 0 0 1-4.871 4.873H7.764a2.617 2.617 0 0 0 2.586 2.249h35.973a2.623 2.623 0 0 0 2.623-2.624l.015-54.722Zm-10.118 4.872H8.866v2.249h29.977v-2.249Zm-14.988 5.997H8.865v2.249h14.99v-2.249Zm14.239 0h-9.743v2.249h9.743v-2.249Zm0 5.997H9.615v2.249h28.479v-2.249Zm-24.732 6.747H8.867v2.249h4.497v-2.249Zm24.732 2.249v-2.249H17.859v2.249h20.235Zm-28.479 5.997h28.479a1.124 1.124 0 0 0 0-2.249H9.615a1.122 1.122 0 0 0-1.131 1.117 1.124 1.124 0 0 0 1.116 1.132h.015Zm421.418-139.272c-2.706 5.854-8.559 10.892-7.495 17.923.029.151.029.306 0 .457a2.89 2.89 0 0 1 1.289 2.407v.967a2.86 2.86 0 0 1-.644 1.791c.395.502.612 1.123.614 1.762v.967a2.893 2.893 0 0 1-2.885 2.886h-.225l-.562 5.045a1.915 1.915 0 0 1-1.904 1.702h-9.802a1.916 1.916 0 0 1-1.904-1.71l-.562-5.037h-1.724a2.897 2.897 0 0 1-2.038-.847 2.898 2.898 0 0 1-.847-2.039v-.967c.005-.64.224-1.26.622-1.762a2.867 2.867 0 0 1-.622-1.761v-.967a2.889 2.889 0 0 1 1.716-2.639c.308-6.649-4.204-11.132-7.929-16.162a18.743 18.743 0 0 1-3.672-13.815c1.192-8.853 8.648-15.652 17.334-16.987a23.911 23.911 0 0 1 14 2.249c5.036 2.452 7.075 5.96 8.064 11.364.937 5.045 1.401 10.353-.824 15.173Zm-16.646-10.315c.09-.15.188-.3.278-.457 1.639-2.069 1.389-3.349-.75-3.838-1.693-1.45-2.113-1.152-1.259.892.32 1.067.803 2.079 1.432 2.998.105.165.21.278.299.405Zm-.239 2.249a9.66 9.66 0 0 1-6.228 3.478c.749 1.499 1.281 2.939 1.686 3.823 2.773 6.042 2.878 12.144 2.571 18.666h4.414a54.279 54.279 0 0 1 2.998-23.478l.067-.188a9.743 9.743 0 0 1-5.134-2.751c-.142.15-.262.3-.374.442v.008Zm-8.919 28.216a.644.644 0 0 0-.637.637v.967a.645.645 0 0 0 .637.637h16.705a.646.646 0 0 0 .637-.637v-.967a.645.645 0 0 0-.637-.637h-16.705Zm14.24 8.995h-10.275l.502 4.498h9.241l.532-4.498Zm3.132-3.861a.644.644 0 0 0-.637-.637h-16.735a.645.645 0 0 0-.637.637v.967a.646.646 0 0 0 .637.638h16.705a.646.646 0 0 0 .637-.638l.03-.967Zm3.17-48.043c-4.211-3.395-10.387-4.632-15.648-3.815-10.387 1.619-18.211 11.994-14.756 22.443 1.499 4.603 5.441 7.864 7.974 11.889a17.784 17.784 0 0 1 2.998 10.135h4.728c.368-7.698-.284-14.115-3.874-21.042l-.705-1.371a10.68 10.68 0 0 1-4.946-1.41c-2.068-1.162-3.695-4.655-.135-5.112 2.503-.322 4.497 2.481 5.996 5.36a7.728 7.728 0 0 0 5.118-2.249c.446-.447.859-.926 1.237-1.432a11.234 11.234 0 0 1-2.248-4.633c-.472-2.084.299-5.509 3.095-3.958 3.192 1.77 2.181 5.787.569 8.479a8.727 8.727 0 0 0 4.962 2.616c1.139-2.451 3.56-6.237 5.995-3.966 2.998 2.804-2.518 5.098-4.556 5.18h-.795c-.307.892-.554 1.807-.802 2.676a53.733 53.733 0 0 0-2.248 20.855h3.597c-.981-9.213 7.944-14.7 8.994-23.403.607-5.308-.143-13.666-4.579-17.249l.029.007Zm-4.219 16.005c2.998.265 3.675-.785 2.031-3.149l-1.754 1.964a8.67 8.67 0 0 0-.652 1.207c.113-.037.233-.022.345-.022h.03Zm-16.72-.622c-.714-1.999-1.379-2.192-1.993-.578-1.309 1.16-.855 1.784 1.364 1.874.533.15 1.076.258 1.626.323-.345-.555-.667-1.102-1.019-1.619h.022Zm49.531 52.765c.097 1.44 2.345 1.447 2.248 0l-1.304-18.995c-.098-1.439-2.346-1.447-2.248 0l.599 8.711c-1.699-.07-3.395-.153-5.089-.248a163.929 163.929 0 0 0-.749-8.246c-.172-1.416-2.421-1.439-2.248 0a148.444 148.444 0 0 1 1.019 20.173 1.124 1.124 0 1 0 2.248 0c.05-3.224-.007-6.442-.172-9.656 1.704.095 3.41.178 5.119.248l.577 8.013Zm13.984-20.075-11.489-.097a1.124 1.124 0 1 0 0 2.249l4.377.037c.5 6.037.784 12.084.854 18.141a1.125 1.125 0 0 0 2.249 0 255.063 255.063 0 0 0-.855-18.126l4.864.045a1.127 1.127 0 1 0-.03-2.256l.03.007Zm1.949 21.32a297.252 297.252 0 0 0 1.544-15.15 224.507 224.507 0 0 0 1.903 5.015 1.14 1.14 0 0 0 2.054.27 29.588 29.588 0 0 0 2.997-5.248c.5 4.633 1.169 9.246 2.009 13.838.262 1.425 2.428.817 2.166-.599a187.05 187.05 0 0 1-2.428-18.546c-.098-1.199-1.882-1.604-2.211-.3a27.78 27.78 0 0 1-3.268 7.841 222.705 222.705 0 0 1-2.503-6.836 1.105 1.105 0 0 0-.592-.668 1.18 1.18 0 0 0-2.084.653 305.472 305.472 0 0 1-1.866 19.722c-.179 1.439 2.069 1.424 2.249.008h.03Zm17.544-19.858c.06-1.447-2.188-1.447-2.248 0l-.705 17.714a1.145 1.145 0 0 0 1.124 1.124l7.06.42c1.447.082 1.439-2.166 0-2.249l-5.89-.352.659-16.657Zm19.103-1.199c-3.037-.225-6.08-.315-9.128-.27a1.067 1.067 0 0 0-.999.665 1.07 1.07 0 0 0-.08.414 1.1 1.1 0 0 0-.345.75 23.805 23.805 0 0 1-.877 5.172 1.134 1.134 0 0 0 .415 1.168 1.138 1.138 0 0 0 1.234.099c2.421-1.214 5.763 1.829 6.16 4.123.862 4.948-4.241 4.37-7.322 3.299-1.371-.48-1.956 1.694-.599 2.166 4.212 1.499 11.174 1.214 10.29-5.082-.495-3.516-3.965-7.159-7.585-6.987.242-1.175.405-2.364.487-3.561 2.783 0 5.564.09 8.342.27 1.431.128 1.424-2.121-.015-2.226h.022Zm-76.015 143.282c.824-1.634 6.295-10.022 8.903-4.985.667 1.282 2.608.15 1.941-1.132-1.784-3.44-5.621-2.931-8.289-.809-3.56 2.833-5.785 7.541-6.542 11.941-.697 4.033-.488 9.303 1.993 12.744 2.601 3.628 6.977 2.384 10.552 1.004 1.334-.517.75-2.691-.599-2.166-3.343 1.297-7.555 2.121-9.099-2.122a17.475 17.475 0 0 1-.891-6.934 19.339 19.339 0 0 1 2.031-7.541Zm23.937 13.808c-.053-2.668-2.324-4.88-4.002-6.746-1.679-1.867-3.208-3.748-3.897-6.155a11.246 11.246 0 0 1-.435-3.283c.06-2.249 1.499-6.454 5.306-4.415 1.274.689 2.413-1.252 1.132-1.942-5.524-2.998-9.136 3.081-8.581 8.014.367 3.335 1.941 6.049 4.114 8.53 2.173 2.482 5.778 5.338 1.829 8.756-1.934 1.672-5.246 1.896-7.652 1.724-1.447-.105-1.439 2.144 0 2.249 3.919.285 12.231-1.439 12.156-6.732h.03Zm4.279 4.453c-1.416-.262-2.023 1.904-.6 2.166 4.692.877 10.935-.517 8.994-6.521-.975-2.999-3.26-5.248-4.992-7.834a13.104 13.104 0 0 1-2.405-6.222c-.143-1.776.337-7.893 3.747-6.574 1.349.517 1.934-1.657.6-2.166-5.247-2.017-6.978 5.599-6.536 9.303a16.238 16.238 0 0 0 3.305 7.721 49.752 49.752 0 0 1 2.998 4.13c.45.75 1.222 1.889 1.274 2.766.225 4.011-4.144 3.658-6.415 3.238l.03-.007Zm20.557-24.145c-2.406-4.955-7.884-1.455-10.29 1.387-.929 1.101.652 2.698 1.589 1.589.467-.611.981-1.185 1.537-1.717 2.248-1.926 5.733-1.499 5.201 2.946-.255 2.107-2.151 4.011-3.875 5.187l-.39.255-.067.045-.232.173c-.997.809.292 2.428 1.364 1.769a8.78 8.78 0 0 0 .749-.525c2.121-1.132 5.628-.322 7.12 1.424 1.873 2.189 1.633 4.963-.225 7.107a8.93 8.93 0 0 1-8.859 2.691c-1.409-.322-2.008 1.844-.599 2.166 5.756 1.32 13.61-2.249 13.332-9.1-.164-4.048-4.107-6.814-7.981-7.009 1.918-2.451 3.005-5.57 1.626-8.388ZM84.169 292.884c.66 9.236.84 25.187-1.498 28.688-.113.173-.225.352-.345.547-.75 1.222-1.401 2.249-3.635 2.249-2.353 0-4.4-.202-5.628-2.653-.352-.698-.128-2.856 0-4.146.082-.794.157-1.552.157-2.151h-2.998c0 .45-.067 1.132-.142 1.851-.202 2.024-.435 4.318.3 5.795 2.158 4.31 6.31 4.31 8.311 4.31 3.905 0 5.329-2.316 6.183-3.695.097-.158.195-.315.292-.458 3.665-5.494 2.174-28.013 1.994-30.562l-2.99.225Zm22.671 25.757c-.525 2.781-1.559 5.75-7.24 5.75-1.416 0-5.47-1.005-5.47-5.472h-2.998c0 6.169 5.193 8.47 8.468 8.47 8.642 0 9.803-6.169 10.185-8.193l.038-.218c.584-3.065.704-5.187-3.942-9.835a18.363 18.363 0 0 0-4.864-3.238c-2.428-1.252-4.347-2.249-5.246-4.887a4.734 4.734 0 0 1 .285-4.026 6.22 6.22 0 0 1 3.807-2.743 5.807 5.807 0 0 1 3.852 1.416c.379.271.695.621.926 1.026.23.406.369.856.408 1.321h2.998a6.093 6.093 0 0 0-2.429-4.656c-1.866-1.499-4.496-2.398-6.332-2.038a9.202 9.202 0 0 0-5.823 4.175 7.706 7.706 0 0 0-.54 6.484c1.266 3.801 4.152 5.292 6.692 6.604a15.796 15.796 0 0 1 4.122 2.699c3.748 3.748 3.56 4.82 3.111 7.151l-.008.21Zm39.188-24.243a10.495 10.495 0 0 1-12.299 10.712 10.497 10.497 0 0 1-7.917-14.261 10.487 10.487 0 0 1 9.724-6.57 10.316 10.316 0 0 1 10.492 10.119Zm-2.248 0a8.242 8.242 0 1 0-15.889 2.688 8.235 8.235 0 0 0 3.029 3.763 8.232 8.232 0 0 0 4.616 1.42 8.068 8.068 0 0 0 8.244-7.871Zm6.82 11.762-2.803 3.276a2.431 2.431 0 0 1-1.746.847 2.46 2.46 0 0 1-1.806-.705l-1.402-1.402a.176.176 0 0 0-.088-.047.176.176 0 0 0-.099.01l-2.136.855a.173.173 0 0 0-.105.157v1.574a2.421 2.421 0 0 1-2.421 2.421h-4.901a2.421 2.421 0 0 1-2.421-2.421v-1.649a.17.17 0 0 0-.028-.089.177.177 0 0 0-.069-.061l-2.811-1.409a.174.174 0 0 0-.217.052l-.749 1.027a2.427 2.427 0 0 1-1.675.954 2.412 2.412 0 0 1-1.84-.571l-3.133-2.684a2.43 2.43 0 0 1-.84-1.744 2.422 2.422 0 0 1 .705-1.802l1.394-1.402a.165.165 0 0 0 .047-.088.168.168 0 0 0-.009-.099l-.855-2.136a.167.167 0 0 0-.063-.076.166.166 0 0 0-.094-.029h-1.694a2.414 2.414 0 0 1-2.406-2.182l-.487-4.902a2.423 2.423 0 0 1 2.406-2.661h2.248a.183.183 0 0 0 .088-.025.168.168 0 0 0 .062-.065l1.357-2.706a.172.172 0 0 0-.068-.225l-1.176-.705a2.415 2.415 0 0 1-1.166-1.872 2.428 2.428 0 0 1 .836-2.041l2.833-2.429a2.43 2.43 0 0 1 1.84-.571 2.414 2.414 0 0 1 1.675.954l.809 1.079c.023.03.056.051.092.06.037.01.076.007.11-.008l3.523-1.499a.173.173 0 0 0 .105-.157v-1.462a2.415 2.415 0 0 1 .794-1.792 2.4 2.4 0 0 1 1.866-.614l4.647.465a2.418 2.418 0 0 1 2.128 2.886l-.277 1.371a.17.17 0 0 0 .09.188l2.675 1.334a.173.173 0 0 0 .21-.045l1.364-1.709a2.416 2.416 0 0 1 1.851-.907 2.328 2.328 0 0 1 1.881.847l2.608 3.043a2.427 2.427 0 0 1 .294 2.723 2.42 2.42 0 0 1-.616.741l-1.799 1.416a.171.171 0 0 0-.037.225l1.289 2.144a.172.172 0 0 0 .15.083h1.716a2.421 2.421 0 0 1 2.421 2.421v3.868a2.427 2.427 0 0 1-.885 1.873 2.417 2.417 0 0 1-2.008.503l-1.229-.247a.171.171 0 0 0-.187.09l-1.387 2.774a.166.166 0 0 0-.03.097c0 .035.01.069.03.097l1.499 1.5a2.43 2.43 0 0 1 .12 3.29v-.007Zm-1.716-1.694-1.499-1.499a2.417 2.417 0 0 1-.45-2.796l1.387-2.774a2.421 2.421 0 0 1 2.638-1.289l1.229.247a.157.157 0 0 0 .071.016.16.16 0 0 0 .071-.016.159.159 0 0 0 .046-.06.176.176 0 0 0 .014-.075v-3.868a.172.172 0 0 0-.05-.122.176.176 0 0 0-.122-.05h-1.717a2.446 2.446 0 0 1-2.076-1.177l-1.289-2.144a2.427 2.427 0 0 1 .563-3.134l1.813-1.454a.16.16 0 0 0 .06-.12.173.173 0 0 0-.005-.068.188.188 0 0 0-.032-.059l-2.608-3.044a.171.171 0 0 0-.128-.06.163.163 0 0 0-.075.018.161.161 0 0 0-.06.05l-1.364 1.709a2.423 2.423 0 0 1-2.997.652l-2.676-1.334a2.426 2.426 0 0 1-1.289-2.639l.277-1.379a.165.165 0 0 0-.031-.134.18.18 0 0 0-.052-.047.189.189 0 0 0-.067-.022l-4.646-.464a.233.233 0 0 0-.135.045.154.154 0 0 0-.044.057.156.156 0 0 0-.016.07v1.462a2.43 2.43 0 0 1-.406 1.353c-.267.4-.648.712-1.093.896l-3.522 1.499a2.416 2.416 0 0 1-2.893-.75l-.809-1.079a.171.171 0 0 0-.248-.03l-2.833 2.429a.177.177 0 0 0-.07.138.176.176 0 0 0 .07.139l1.177.705a2.427 2.427 0 0 1 .922 3.156l-1.357 2.706a2.407 2.407 0 0 1-2.166 1.341h-2.248a.17.17 0 0 0-.127.056.175.175 0 0 0-.037.061.19.19 0 0 0-.008.071l.487 4.902a.174.174 0 0 0 .055.113.175.175 0 0 0 .117.045h1.694a2.404 2.404 0 0 1 2.248 1.499l.855 2.144c.176.439.22.92.126 1.384-.095.464-.324.89-.658 1.225l-1.319 1.379a.158.158 0 0 0-.053.127.18.18 0 0 0 .016.07.194.194 0 0 0 .044.058l3.133 2.683a.156.156 0 0 0 .127.038.155.155 0 0 0 .067-.021.15.15 0 0 0 .053-.047l.749-1.027a2.426 2.426 0 0 1 2.998-.749l2.811 1.409a2.409 2.409 0 0 1 1.341 2.167v1.649a.173.173 0 0 0 .172.172h4.902a.174.174 0 0 0 .122-.05.176.176 0 0 0 .05-.122v-1.575a2.408 2.408 0 0 1 1.499-2.248l2.143-.855a2.409 2.409 0 0 1 2.609.532l1.401 1.402a.173.173 0 0 0 .058.042.181.181 0 0 0 .139 0 .173.173 0 0 0 .058-.042l2.803-3.276a.172.172 0 0 0 .06-.217Zm333.388 86.791a10.496 10.496 0 0 1-12.3 10.711 10.486 10.486 0 0 1-8.447-8.147 10.499 10.499 0 0 1 10.255-12.684 10.318 10.318 0 0 1 10.492 10.12Zm-2.249 0a8.249 8.249 0 0 0-4.82-7.88 8.241 8.241 0 0 0-11.471 5.754 8.256 8.256 0 0 0 .402 4.814 8.24 8.24 0 0 0 7.646 5.183 8.072 8.072 0 0 0 8.243-7.871Zm10.867-2.077v3.868a2.413 2.413 0 0 1-1.832 2.351 2.42 2.42 0 0 1-1.061.026l-1.229-.248a.175.175 0 0 0-.187.09l-1.386 2.774a.172.172 0 0 0-.031.097c0 .035.011.069.031.098l1.498 1.499c.429.432.68 1.009.703 1.617a2.423 2.423 0 0 1-.575 1.666l-2.781 3.276a2.428 2.428 0 0 1-1.746.847 2.459 2.459 0 0 1-1.806-.704l-1.401-1.402a.169.169 0 0 0-.088-.047.171.171 0 0 0-.1.009l-2.136.855a.173.173 0 0 0-.105.157v1.575a2.421 2.421 0 0 1-2.42 2.421h-4.902a2.419 2.419 0 0 1-2.42-2.421v-1.65a.175.175 0 0 0-.098-.157l-2.81-1.409a.17.17 0 0 0-.119-.017.168.168 0 0 0-.098.069l-.75 1.027a2.423 2.423 0 0 1-2.654.859 2.416 2.416 0 0 1-.861-.477l-3.117-2.691a2.419 2.419 0 0 1-.135-3.545l1.401-1.402a.169.169 0 0 0 .047-.088.171.171 0 0 0-.009-.1l-.855-2.143a.167.167 0 0 0-.063-.076.168.168 0 0 0-.094-.029h-1.694a2.414 2.414 0 0 1-2.406-2.182l-.487-4.902a2.423 2.423 0 0 1 2.406-2.661h2.248a.176.176 0 0 0 .15-.09l1.357-2.707a.17.17 0 0 0 .01-.125.168.168 0 0 0-.078-.099l-1.199-.683a2.427 2.427 0 0 1-1.165-1.872 2.417 2.417 0 0 1 .835-2.041l2.833-2.428a2.416 2.416 0 0 1 1.841-.572 2.426 2.426 0 0 1 1.674.954l.809 1.072a.17.17 0 0 0 .093.06c.036.01.075.007.11-.008l3.522-1.499a.167.167 0 0 0 .076-.063.168.168 0 0 0 .029-.094v-1.462a2.415 2.415 0 0 1 .795-1.792c.249-.228.545-.402.867-.508.321-.106.662-.142.999-.106l4.646.464a2.41 2.41 0 0 1 2.118 1.884c.074.33.077.671.011 1.002l-.278 1.372a.176.176 0 0 0 .09.188l2.676 1.334a.173.173 0 0 0 .21-.045l1.364-1.709a2.403 2.403 0 0 1 1.851-.907 2.465 2.465 0 0 1 1.873.779l2.608 3.044a2.418 2.418 0 0 1 .294 2.722 2.42 2.42 0 0 1-.616.741l-1.814 1.454a.171.171 0 0 0-.037.225l1.289 2.144a.172.172 0 0 0 .15.083h1.716a2.423 2.423 0 0 1 2.234 1.524c.118.297.177.615.172.934h.007Zm-2.248 0a.169.169 0 0 0-.051-.121.169.169 0 0 0-.121-.051h-1.717a2.443 2.443 0 0 1-2.076-1.177l-1.289-2.144a2.426 2.426 0 0 1 .562-3.133l1.814-1.454a.174.174 0 0 0 .043-.054.17.17 0 0 0 .017-.066.173.173 0 0 0-.005-.068.193.193 0 0 0-.032-.06l-2.593-3.043a.147.147 0 0 0-.135-.06.152.152 0 0 0-.076.017.168.168 0 0 0-.059.05l-1.364 1.709a2.428 2.428 0 0 1-2.998.652l-2.668-1.341a2.426 2.426 0 0 1-1.289-2.639l.277-1.379a.165.165 0 0 0-.031-.134.18.18 0 0 0-.052-.047.177.177 0 0 0-.067-.022l-4.646-.464a.213.213 0 0 0-.135.045.146.146 0 0 0-.044.057.156.156 0 0 0-.016.07v1.462a2.424 2.424 0 0 1-1.499 2.249l-3.522 1.499a2.416 2.416 0 0 1-2.893-.75l-.81-1.072a.18.18 0 0 0-.123-.052.171.171 0 0 0-.067.014.173.173 0 0 0-.057.038l-2.78 2.347a.166.166 0 0 0-.048.063.164.164 0 0 0-.012.079.155.155 0 0 0 .024.078.159.159 0 0 0 .058.057l1.177.705a2.427 2.427 0 0 1 .922 3.155l-1.357 2.707a2.403 2.403 0 0 1-2.166 1.341h-2.248a.17.17 0 0 0-.07.015.166.166 0 0 0-.094.102c-.008.023-.01.047-.008.071l.487 4.902a.174.174 0 0 0 .055.113.175.175 0 0 0 .117.045h1.694a2.402 2.402 0 0 1 2.248 1.499l.855 2.136a2.415 2.415 0 0 1-.533 2.609l-1.401 1.402a.167.167 0 0 0-.052.127.176.176 0 0 0 .059.128l3.133 2.683a.177.177 0 0 0 .06.033.173.173 0 0 0 .068.005.201.201 0 0 0 .067-.021.18.18 0 0 0 .052-.047l.75-1.027a2.423 2.423 0 0 1 2.998-.749l2.81 1.409a2.403 2.403 0 0 1 1.342 2.166v1.65c0 .045.018.089.05.122.032.032.076.05.122.05h4.901a.172.172 0 0 0 .173-.172v-1.575a2.412 2.412 0 0 1 1.498-2.248l2.144-.855a2.408 2.408 0 0 1 2.608.532l1.401 1.402a.142.142 0 0 0 .128.053.19.19 0 0 0 .07-.017.172.172 0 0 0 .057-.043l2.803-3.276a.172.172 0 0 0 0-.233l-1.499-1.499a2.42 2.42 0 0 1-.457-2.796l1.387-2.774a2.424 2.424 0 0 1 2.638-1.289l1.229.247a.164.164 0 0 0 .139-.036.177.177 0 0 0 .063-.128l.06-3.779Zm-28.621-247.427a10.491 10.491 0 1 1 20.216 3.55 10.487 10.487 0 0 1-9.724 6.57 10.32 10.32 0 0 1-10.492-10.12Zm2.248 0a8.247 8.247 0 0 0 9.61 8.505 8.24 8.24 0 0 0 6.681-6.378 8.25 8.25 0 0 0-3.43-8.578 8.253 8.253 0 0 0-4.617-1.42 8.074 8.074 0 0 0-8.244 7.871Zm-4.032-15.322a2.425 2.425 0 0 1 3.515.382l.809 1.08a.17.17 0 0 0 .093.06c.036.01.075.007.11-.008l3.522-1.499a.167.167 0 0 0 .076-.063.168.168 0 0 0 .029-.094v-1.462a2.438 2.438 0 0 1 .797-1.793 2.424 2.424 0 0 1 1.864-.613l4.646.464a2.41 2.41 0 0 1 2.118 1.884c.074.33.077.671.011 1.002l-.278 1.372a.176.176 0 0 0 .09.188l2.676 1.334a.173.173 0 0 0 .21-.045l1.364-1.709a2.41 2.41 0 0 1 1.851-.907 2.39 2.39 0 0 1 1.881.847l2.608 3.043a2.427 2.427 0 0 1-.323 3.464l-1.813 1.454a.174.174 0 0 0-.038.225l1.282 2.144a.171.171 0 0 0 .15.082h1.716a2.421 2.421 0 0 1 2.421 2.421v3.868a2.423 2.423 0 0 1-2.893 2.377l-1.229-.248a.182.182 0 0 0-.188.09l-1.386 2.774a.172.172 0 0 0 0 .195l1.499 1.499a2.433 2.433 0 0 1 .127 3.283l-2.803 3.276a2.414 2.414 0 0 1-3.544.135l-1.402-1.402a.157.157 0 0 0-.088-.048.16.16 0 0 0-.099.011l-2.144.854a.18.18 0 0 0-.076.063.186.186 0 0 0-.029.095v1.574a2.421 2.421 0 0 1-2.42 2.421h-4.902a2.419 2.419 0 0 1-2.42-2.421v-1.649a.174.174 0 0 0-.098-.158l-2.81-1.401a.168.168 0 0 0-.118-.014.169.169 0 0 0-.099.066l-.75 1.027a2.423 2.423 0 0 1-2.654.859 2.407 2.407 0 0 1-.861-.477l-3.132-2.661a2.419 2.419 0 0 1-.135-3.545l1.401-1.402a.169.169 0 0 0 .047-.088.18.18 0 0 0-.009-.1l-.855-2.144a.178.178 0 0 0-.063-.076.175.175 0 0 0-.094-.028h-1.694a2.418 2.418 0 0 1-2.406-2.182l-.487-4.902a2.423 2.423 0 0 1 2.406-2.662h2.248a.17.17 0 0 0 .195-.112l1.357-2.706a.172.172 0 0 0-.068-.225l-1.176-.705a2.421 2.421 0 0 1-.33-3.913l2.795-2.451Zm-1.364 4.13a.18.18 0 0 0-.07.139.176.176 0 0 0 .07.139l1.177.704a2.432 2.432 0 0 1 .922 3.156l-1.357 2.707a2.403 2.403 0 0 1-2.166 1.341h-2.248a.17.17 0 0 0-.07.015.166.166 0 0 0-.094.102c-.008.023-.01.047-.008.071l.487 4.902a.176.176 0 0 0 .055.113.175.175 0 0 0 .117.045h1.694a2.402 2.402 0 0 1 2.248 1.499l.855 2.144a2.411 2.411 0 0 1-.533 2.608l-1.401 1.402a.167.167 0 0 0-.053.128.19.19 0 0 0 .017.07c.01.022.025.041.043.057l3.133 2.684a.172.172 0 0 0 .128.037.179.179 0 0 0 .067-.02.167.167 0 0 0 .052-.047l.75-1.027a2.41 2.41 0 0 1 2.998-.712l2.81 1.409a2.401 2.401 0 0 1 1.334 2.166v1.65c0 .045.018.089.051.121a.169.169 0 0 0 .121.051h4.902a.173.173 0 0 0 .172-.172v-1.575a2.404 2.404 0 0 1 1.499-2.249l2.143-.854a2.409 2.409 0 0 1 2.608.532l1.402 1.402c.016.017.036.03.058.039a.166.166 0 0 0 .069.013.167.167 0 0 0 .07-.016.166.166 0 0 0 .058-.044l2.803-3.275a.175.175 0 0 0 0-.233l-1.499-1.499a2.42 2.42 0 0 1-.457-2.796l1.386-2.774a2.428 2.428 0 0 1 2.638-1.289l1.229.247c.022.01.047.016.071.016a.18.18 0 0 0 .072-.016.167.167 0 0 0 .059-.135v-3.868a.176.176 0 0 0-.05-.122.172.172 0 0 0-.122-.05h-1.626a2.44 2.44 0 0 1-2.076-1.177l-1.289-2.144a2.432 2.432 0 0 1 .562-3.133l1.814-1.455a.171.171 0 0 0 .06-.119.173.173 0 0 0-.038-.128l-2.63-3.036a.163.163 0 0 0-.128-.06.132.132 0 0 0-.135.068l-1.364 1.709a2.427 2.427 0 0 1-2.998.652l-2.675-1.334a2.426 2.426 0 0 1-1.289-2.639l.277-1.372a.183.183 0 0 0-.001-.07.176.176 0 0 0-.149-.132l-4.646-.465a.164.164 0 0 0-.135.045.17.17 0 0 0-.06.127v1.462a2.419 2.419 0 0 1-1.499 2.249l-3.522 1.499a2.42 2.42 0 0 1-2.886-.749l-.727-1.11a.167.167 0 0 0-.052-.047.179.179 0 0 0-.067-.02.172.172 0 0 0-.128.037l-2.833 2.406Zm-117.467 115.24c0-2.084.075-4.243-.39-5.248-.749-1.581-4.789-5.187-7.179-7.091l-1.237-.982 1.334-.847c2.331-1.499 6.325-4.303 7.135-5.63.809-1.327 1.034-4.115 1.236-6.784.255-3.291.488-6.402 1.799-8.246 1.686-2.406 8.926-4.498 10.357-4.932l.637-.18 1.544 1.544v6.634l-.907.18c-1.798.352-4.691 1.357-5.208 2.399-.517 1.042-.615 3.943-.75 6.357-.127 2.713-.247 5.052-.749 6.296-.405 1.035-1.979 2.489-3.118 3.434 1.079 1.109 2.691 2.901 3.118 4.003.51 1.334.502 3.365.502 5.517 0 2.324 0 5.247.794 6.139.42.39 2.878.922 5.246 1.125l1.027.09v7.496l-1.199-.083c-1.746-.12-10.544-.824-12.74-3.38-1.364-1.65-1.312-4.648-1.252-7.811Zm1.649-6.192c.682 1.499.644 3.748.599 6.229-.045 2.481-.097 5.3.75 6.252 1.072 1.229 6.138 2.159 10.02 2.519v-2.999c-1.904-.217-4.782-.749-5.711-1.769-1.371-1.559-1.364-4.648-1.356-7.631 0-1.852 0-3.748-.353-4.7-.299-.75-2.248-2.864-3.477-4.093l-.929-.907 1.026-.795c1.462-1.124 3.171-2.698 3.388-3.268.352-.9.472-3.388.577-5.592.15-2.999.285-5.877.967-7.249.959-1.934 4.182-2.999 5.875-3.396v-3.815c-3.222.967-7.606 2.661-8.446 3.868-.952 1.356-1.176 4.302-1.394 7.151-.232 3.066-.457 5.997-1.559 7.781-1.011 1.664-4.571 4.19-6.557 5.517 1.941 1.634 5.658 4.918 6.58 6.897Zm24.484 9.452c.809-.899.802-3.793.794-6.116 0-2.152 0-4.191.51-5.525.427-1.102 2.061-2.879 3.155-3.988-1.154-.952-2.75-2.391-3.155-3.426-.495-1.244-.607-3.591-.749-6.304-.12-2.406-.263-5.405-.75-6.349-.487-.945-3.477-2.047-5.306-2.399l-.922-.18v-6.657l1.567-1.544.629.172c1.462.405 8.821 2.534 10.537 4.933 1.334 1.866 1.574 4.985 1.836 8.246.21 2.668.42 5.427 1.26 6.746.839 1.32 4.908 4.213 7.269 5.712l1.379.855-1.274 1.004c-2.428 1.904-6.558 5.51-7.3 7.092-.472.997-.434 3.148-.397 5.247.06 3.179.113 6.177-1.304 7.781-2.248 2.556-11.241 3.261-12.98 3.381l-1.207.082v-7.496l1.042-.09c2.413-.247 4.924-.779 5.359-1.184l.007.007Zm-4.137 3.299v2.998c3.95-.36 9.128-1.289 10.222-2.518.832-.945.75-3.876.75-6.237 0-2.362-.09-4.768.614-6.245.937-1.979 4.692-5.247 6.745-6.904-2.023-1.326-5.628-3.845-6.655-5.502-1.124-1.821-1.349-4.722-1.588-7.796-.225-2.841-.45-5.779-1.417-7.136-.862-1.207-5.343-2.909-8.618-3.876v3.801c1.723.427 5.006 1.499 5.995 3.396.697 1.371.832 4.227.982 7.256.105 2.196.232 4.685.584 5.577.225.562 1.956 2.136 3.44 3.261l1.065.802-1.05.914c-1.289 1.23-3.237 3.314-3.537 4.093-.367.937-.36 2.849-.352 4.693 0 2.999 0 6.087-1.387 7.646-.929 1.05-3.859 1.552-5.793 1.769v.008Zm-246.85 95.899 1.544 1.544v6.634l-.907.18c-1.799.352-4.692 1.357-5.209 2.399-.517 1.042-.614 3.943-.749 6.356-.128 2.714-.248 5.053-.75 6.297-.404 1.042-1.978 2.489-3.117 3.434 1.079 1.109 2.69 2.901 3.117 4.003.51 1.334.502 3.365.502 5.517 0 2.324 0 5.247.795 6.139.427.39 2.878.922 5.246 1.125l1.027.09v7.496l-1.199-.083c-1.739-.12-10.545-.824-12.741-3.381-1.386-1.596-1.334-4.595-1.281-7.766 0-2.084.075-4.242-.39-5.247-.75-1.582-4.79-5.187-7.18-7.091l-1.236-.982 1.334-.847c2.33-1.5 6.325-4.303 7.134-5.63.81-1.327 1.035-4.115 1.237-6.784.255-3.291.487-6.402 1.799-8.246 1.686-2.399 8.925-4.498 10.357-4.932l.667-.225Zm-.705 2.541c-3.222.967-7.606 2.661-8.446 3.868-.952 1.357-1.176 4.303-1.394 7.151-.232 3.066-.457 5.997-1.559 7.781-1.011 1.664-4.571 4.191-6.557 5.518 1.978 1.656 5.696 4.94 6.617 6.919.682 1.499.645 3.748.6 6.229-.045 2.481-.098 5.3.749 6.252 1.072 1.237 6.138 2.159 10.02 2.518v-2.998c-1.903-.217-4.781-.75-5.71-1.769-1.372-1.559-1.364-4.648-1.357-7.631 0-1.852 0-3.748-.352-4.7-.3-.75-2.248-2.864-3.478-4.093l-.929-.907 1.027-.795c1.461-1.124 3.163-2.699 3.387-3.261.353-.899.473-3.396.577-5.592.15-2.998.285-5.877.967-7.249.959-1.934 4.182-2.998 5.876-3.396l-.038-3.845Zm29.828 23.988 1.379.854-1.274 1.005c-2.428 1.904-6.558 5.509-7.307 7.091-.472.997-.435 3.149-.397 5.248.06 3.178.112 6.176-1.304 7.781-2.249 2.556-11.242 3.26-12.981 3.38l-1.206.083v-7.496l1.042-.09c2.413-.203 4.923-.75 5.365-1.14.81-.899.802-3.793.795-6.117 0-2.151 0-4.19.51-5.524.427-1.095 2.06-2.879 3.155-3.988-1.154-.952-2.751-2.392-3.155-3.426-.495-1.244-.608-3.591-.75-6.304-.12-2.407-.262-5.405-.749-6.35-.487-.944-3.478-2.046-5.306-2.398l-.922-.18v-6.657l1.566-1.544.63.172c1.461.405 8.821 2.534 10.537 4.933 1.334 1.866 1.574 4.985 1.836 8.246.21 2.668.42 5.427 1.259 6.746.839 1.319 4.909 4.198 7.277 5.697v-.022Zm-2.533 1.072c-2.024-1.327-5.628-3.846-6.655-5.503-1.124-1.821-1.349-4.722-1.589-7.796-.225-2.841-.45-5.779-1.416-7.136-.862-1.199-5.344-2.908-8.619-3.876v3.801c1.724.427 5.006 1.499 5.996 3.396.697 1.372.831 4.228.981 7.256.105 2.197.233 4.685.585 5.577.217.555 1.993 2.159 3.44 3.261l1.064.802-.967.922c-1.289 1.23-3.237 3.314-3.537 4.093-.367.937-.36 2.841-.352 4.693 0 2.998 0 6.087-1.387 7.646-.944 1.049-3.882 1.552-5.808 1.769v2.999c3.95-.36 9.128-1.282 10.222-2.519.832-.945.75-3.876.75-6.237s-.09-4.768.614-6.244c.9-1.957 4.654-5.233 6.678-6.904Zm270.682-144.767-10.874 8.178 10.844 9.221 1.567-1.844-8.536-7.257 8.476-6.356-1.477-1.942Zm15.649-3.973-12.111 22.286 2.128 1.155 12.111-22.287-2.128-1.154Zm6.685 4.011-1.559 1.851 8.101 6.822-8.101 6.821 1.559 1.852 10.305-8.681-10.305-8.665Zm-272.714-45.915-8.558-7.256 8.476-6.357-1.454-1.941-10.897 8.178 10.844 9.22 1.589-1.844Zm2.024 2.766 2.128 1.155 12.111-22.286-2.128-1.185-12.111 22.316Zm18.796-.914 10.342-8.658-10.342-8.703-1.559 1.851 8.101 6.822-8.101 6.829 1.559 1.859ZM19.111 376.01l-2.249-2.999L0 385.665l16.773 14.242 2.428-2.856-13.205-11.206 13.115-9.835Zm3.222 25.344 3.29 1.792 18.736-34.483-3.29-1.791-18.736 34.482Zm26.673-25.404 12.538 10.554-12.538 10.562 2.413 2.864 15.94-13.426-15.94-13.425-2.413 2.871Zm456.536-77.871c-5.089.105-8.761-3.838-9.368-8.763-.832-6.747 3.29-13.043 3.215-19.865-.09-8.366-4.145-17.496-14.007-16.619-8.731.75-13.378 9.273-12.373 17.339h.539a12.614 12.614 0 0 1 12.598 12.601v23.523a12.616 12.616 0 0 1-12.598 12.601h-4.024a12.614 12.614 0 0 1-12.598-12.601v-23.516a12.614 12.614 0 0 1 12.598-12.601h1.244c-.825-6.641 1.641-13.433 7.412-17.151a14.99 14.99 0 0 1 8.793-2.471 14.991 14.991 0 0 1 8.594 3.093c5.246 4.175 6.295 11.424 6.055 17.736-.15 3.823-1.296 7.174-2.368 10.81-1.566 5.307-1.117 13.793 6.303 13.635 1.431-.03 1.424 2.219-.015 2.249Zm-32.886-12.534v-5.997a1.124 1.124 0 1 0-2.248 0v5.997c0 .299.119.585.329.796a1.128 1.128 0 0 0 1.59 0c.211-.211.329-.497.329-.796Zm-13.489-2.766v11.387h11.241v-5.457a3.368 3.368 0 0 1-2.248-3.164v-5.997a3.367 3.367 0 0 1 2.248-3.163v-3.958h-.892a10.363 10.363 0 0 0-10.349 10.352Zm24.731 23.523v-9.895h-24.731v9.888a10.366 10.366 0 0 0 10.349 10.352h4.032a10.365 10.365 0 0 0 10.35-10.352v.007Zm-10.35-33.875h-.892v3.958a3.365 3.365 0 0 1 2.249 3.163v5.997a3.369 3.369 0 0 1-2.249 3.164v5.457h11.242v-11.387a10.367 10.367 0 0 0-10.357-10.359l.007.007Zm-121.649 95.412h89.184v42.728h-10.02a48.555 48.555 0 0 1-.203 8.801c-.285 1.769-1.326 4.033-2.428 6.431a29.824 29.824 0 0 0-2.173 5.585c-.398 2.159-.12 8.651 0 10.967l-2.249.135c0-.352-.517-8.651 0-11.522a30.241 30.241 0 0 1 2.346-6.117c.989-2.159 2.009-4.385 2.248-5.847.577-3.56.158-11.319-.449-15.239-.487 2.548-.96 6.964-1.132 8.785l-2.248-.18c.352-5.487.255-11.821-.48-13.366a2.267 2.267 0 0 0-.45-.045 61.366 61.366 0 0 0-.517 7.077c0 3.381-.097 6.207-.112 6.454l-2.248-.045c0-.24 0-3.186.112-6.439 0-4.078-.195-8.613-.817-10.435a.75.75 0 0 0-.839-.577.93.93 0 0 0-.75.96v16.491l-2.248.06c-.15-2.893-.697-10.899-1.499-13.186l-.045-.127c-.049.06-.091.126-.127.195-1.184 2.901-1.447 14.198-1.447 18.305h-2.248c0-2.031-.127-7.683-.704-9.377-.12-.345-.233-.42-.233-.42a1.048 1.048 0 0 0-.667.397c-.689 2.811-.682 9.745 0 12.901a21.605 21.605 0 0 0 2.181 4.565 22.149 22.149 0 0 1 2.413 5.18c.645 2.879.053 11.245 0 11.574l-2.248-.164c.165-2.317.502-8.794 0-10.915a21.628 21.628 0 0 0-2.181-4.565 22.178 22.178 0 0 1-2.421-5.18 43.395 43.395 0 0 1-.434-11.117h-17.17a44.507 44.507 0 0 1-.255 12.609 22.342 22.342 0 0 1-2.361 5.172 21.862 21.862 0 0 0-2.135 4.573c-.465 2.121-.143 8.605 0 10.922l-2.249.157c0-.352-.607-8.695 0-11.566a22.372 22.372 0 0 1 2.361-5.173 21.842 21.842 0 0 0 2.136-4.573c.689-3.148.697-10.112 0-12.923a1.045 1.045 0 0 0-.637-.39 1.017 1.017 0 0 0-.217.42c-.57 1.702-.69 7.354-.69 9.393h-2.248c0-3.044-.143-10.03-.682-14.633h-.053v-.397a15.211 15.211 0 0 0-.682-3.291 1.022 1.022 0 0 0-.105-.165v.105c-.749 2.249-1.296 10.3-1.439 13.193l-2.248-.052v-16.492a.93.93 0 0 0-.749-.974c-.263-.045-.615 0-.795.577-.607 1.829-.749 6.364-.802 10.442.105 3.253.105 6.207.105 6.439l-2.248.045c0-.247-.12-3.073-.112-6.454a62.634 62.634 0 0 0-.51-7.084 2.03 2.03 0 0 0-.412.045c-.75 1.552-.817 7.894-.472 13.388l-2.249.173c-.165-1.799-.614-6.147-1.086-8.711-.585 3.951-.99 11.642-.428 15.18.233 1.499 1.237 3.703 2.204 5.862a30.64 30.64 0 0 1 2.293 6.109c.517 2.864 0 11.162 0 11.515l-2.248-.135c.135-2.324.404-8.816 0-10.975a30.215 30.215 0 0 0-2.129-5.592c-1.026-2.294-2.091-4.663-2.368-6.424a55.207 55.207 0 0 1-.12-10.3h-14.067V380.23a15.517 15.517 0 0 0-5.066 4.55 1.14 1.14 0 0 1-1.941 0 56.79 56.79 0 0 1-7.832-18.381 637.823 637.823 0 0 1-22.483 12.107 29.742 29.742 0 0 1 1.679 2.646c.322.562.682 1.124 1.004 1.702 5.021-2.954 10.327-5.503 15.431-7.954a1.453 1.453 0 0 1 1.919.502 81.581 81.581 0 0 1 5.628 8.996c.787 1.499 2.653 3.935 2.076 5.749-.75 2.249-4.497 4.401-6.213 5.907-.42.368-.847.75-1.289 1.222.749.338.487 1.5-.24 1.762-.791.269-1.603.472-2.428.607a5.998 5.998 0 0 1-2.346 1.072 1.352 1.352 0 0 1-1.499-.69c-1.319.068-2.638.105-3.897.21-3.305.27-6.64.637-9.952.75-1.881.06-2.886.322-4.062-1.154-1.694-2.137-2.653-5.48-3.687-8.194l-.248.113c-.457.202-1.004-.36-.577-.75l.42-.367v-.068c-.158-.367.3-.682.539-.375a69.057 69.057 0 0 1 8.649-6.244c-.24-.63-.442-1.282-.667-1.904a31.15 31.15 0 0 1-.982-3.133 888.609 888.609 0 0 1-11.908 5.997c-1.297.629-2.436-1.312-1.132-1.942a697.977 697.977 0 0 0 36.453-19.25 1.126 1.126 0 0 1 1.403.229c.115.128.199.28.245.445.6 2.9 1.43 5.748 2.481 8.516.989-.57 2.03-1.042 3.11-1.409a1.067 1.067 0 0 1 1.297.749 1.098 1.098 0 0 1-.75 1.297c-.985.415-2.009.732-3.057.945a55.341 55.341 0 0 0 3.994 7.796 18.049 18.049 0 0 1 5.921-4.543v-.847a1.511 1.511 0 0 1-.542-.352 1.517 1.517 0 0 1-.343-.547 103.502 103.502 0 0 0-10.447-19.79 85.872 85.872 0 0 0-13.879 8.995c-.123.12-.271.21-.434.264a1.137 1.137 0 0 1-1.335-.489 33.923 33.923 0 0 0-5.501-8.156 1.125 1.125 0 0 1-.264-.433 1.138 1.138 0 0 1 .489-1.336l14.869-7.226c-.54-.682-1.087-1.364-1.634-2.039-7.18 4.805-15.334 8.621-22.888 12.706-4.039 2.181-8.086 4.348-12.171 6.447a95.34 95.34 0 0 1-9.038 4.422 113.826 113.826 0 0 1-1.896 14.161 134.376 134.376 0 0 1 15.386-10.495c6.145-3.748 12.493-7.631 19.118-10.495 1.327-.569 2.503 1.29 1.162 1.987-6.153 3.433-12.523 6.432-18.609 10.007-5.89 3.464-11.519 7.377-17.432 10.795a92.003 92.003 0 0 1-1.296 5.18c1.641-1.177 3.747-1.919 5.433-2.714 2.421-1.132 5.996-3.89 8.731-3.051a.557.557 0 0 1 .221.124.564.564 0 0 1 .116.701c-1.499 2.249-4.301 2.796-6.782 3.86-2.87 1.222-6.303 2.159-8.671 4.258a81.289 81.289 0 0 1-1.889 5.322.498.498 0 0 1-.599.316.497.497 0 0 1-.353-.578c1.552-10.367 3.433-20.764 4.055-31.252a155.415 155.415 0 0 0-1.267-31.349c-4.496-31.304-19.485-69.714-54.042-77.263-8.701-1.897-17.237-.825-25.578 2.039a96.45 96.45 0 0 0-5.651 2.121.578.578 0 0 1 .18.51c-1.499 9.056-5.246 18.156-8.244 26.822-.479 1.401-2.698.809-2.248-.615 2.795-8.688 5.246-18.186 9.383-26.327-5.996 2.579-11.594 5.922-16.001 10.975a82.691 82.691 0 0 0-12.35 19.017c7.906 1.575 15.461 4.243 22.955 7.182a288.896 288.896 0 0 1 9.068-30.105 1.402 1.402 0 0 1 1.701-.967 1556.892 1556.892 0 0 0 26.268 9.91c8.379 3.066 17.237 5.532 25.324 9.205 1.379.623.359 2.699-.997 2.362-8.738-2.182-17.327-5.997-25.773-9.093a1280.801 1280.801 0 0 1-24.357-9.251c-3.44 9.895-6.273 19.933-9.083 30.023a1.32 1.32 0 0 1-.769.827 1.32 1.32 0 0 1-1.127-.078c-7.72-3.433-15.739-6.176-23.608-9.175a90.563 90.563 0 0 0-7.801 28.291.326.326 0 0 1-.652 0c-.645-10.218 2.053-19.918 6.355-29.131 4.069-8.695 9.39-17.99 16.615-24.437 6.633-5.952 15.656-9.595 24.139-11.994a47.518 47.518 0 0 1 25.354-.322 56.587 56.587 0 0 1 19.988 9.955c.682-2.249 2.473-4.003 3.882-5.81 1.409-1.807 2.713-3.921 4.264-5.712a225.013 225.013 0 0 0-20.827-9.97c1.829 1.499 3.62 3.118 5.463 4.603 3.493 2.818 7.652 5.247 10.56 8.71.315.375 0 1.14-.54.922-3.747-1.439-6.879-4.28-9.952-6.799-3.485-2.856-7.135-5.809-10.05-9.28-5.591-2.249-11.242-4.25-16.847-6.042-6.925-2.249-15.829-4.76-23.091-2.789a6.255 6.255 0 0 0-3.957 3.104c6.378-.96 13.115-.188 19.486.802 6.625 1.034 14.157 2.174 19.717 6.177.293.21.233.749-.202.749-6.4-.419-12.576-2.901-18.886-4.07-6.745-1.244-13.535-1.372-20.295-2.331a.518.518 0 0 1-.337-.203 27 27 0 0 0-1.281 5.023c-.817 4.145-1.379 8.328-1.799 12.533a1.588 1.588 0 0 1-.96 1.275 1.588 1.588 0 0 1-1.581-.21c-7.314 8.913-13.962 17.653-18.646 28.365a111.876 111.876 0 0 0-8.798 34.985c-2.361 26.986 4.437 53.935 15.558 78.388a1.495 1.495 0 0 1-.412 1.792 6.522 6.522 0 0 1 2.78 1.986 9.46 9.46 0 0 1 3.243-5.269 9.442 9.442 0 0 1 5.806-2.134 9.442 9.442 0 0 1 5.882 1.915 9.443 9.443 0 0 1 3.438 5.143 7.776 7.776 0 0 1 6.168-3.073 8.52 8.52 0 0 1 6.033 2.541 5.698 5.698 0 0 1 1.641 4.318 9.877 9.877 0 0 1-.404 1.821l12.868-.18a2.431 2.431 0 0 1 1.719 4.153 2.43 2.43 0 0 1-1.719.712h-67.54a2.464 2.464 0 0 1-2.533-2.398 2.468 2.468 0 0 1 2.398-2.534l11.242-.622.112-.997a6.545 6.545 0 0 1 6.168-5.795h.57c-11.347-25.254-18.377-53.14-15.641-80.959a115.5 115.5 0 0 1 9.076-35.127c4.729-10.772 11.443-22.144 20.647-29.7l.075-.052c.487-6.042.914-13.291 3.784-18.479 2.758-4.969 8.619-5.187 13.685-4.962.412 0 .824.06 1.237.082 2.016-4.677 3.852-9.4 5.411-14.242 1.199-3.748 2.008-7.781 3.642-11.365-1.829-1.094-3.2-3.065-4.932-4.497a68.422 68.422 0 0 0-3.499 5.21 1.194 1.194 0 0 1-1.016.575 1.182 1.182 0 0 1-1.015-.575 23.393 23.393 0 0 1-1.739-4.348 22.882 22.882 0 0 0-1.829 1.971c-.142.75-.285 1.5-.457 2.204-.315 1.417-2.488.81-2.166-.6 5.479-24.31-3.747-47.87-12.935-70.126l-.562 11.131c-.075 1.44-2.323 1.447-2.248 0l.194-3.853c-2.465-17.991-10.994-34.632-13.032-52.72-1.499-13.351.824-28.538 7.786-40.48a45.776 45.776 0 0 0-4.429 5.585 68.321 68.321 0 0 0-5.658 10.84l-.038.097a192.293 192.293 0 0 0-1.603 3.883.352.352 0 0 1-.675-.187 40.383 40.383 0 0 1 2.248-8.09 93.135 93.135 0 0 1 15.281-31.07c7.645-10.038 19.418-15.668 30.832-20.36 12.524-5.165 26.006-8.831 39.526-9.985 11.833-1.012 24.896 1.379 34.197 9.212 2.563-1.986 5.486-3.373 8.821-2.998 5.381.637 9.577 4.737 11.991 9.303a5.707 5.707 0 0 1 1.469 2.96c5.058-.18 9.945 1.665 14.726 3.666a81.794 81.794 0 0 0 9.953 3.748c3.694 1.012 7.359 1.095 11.151 1.162.54 0 .855.847.3 1.095-4.939 2.196-10.492.832-15.416-1.005 14.749 13.793 31.409 27.939 37.562 47.744 5.651 18.193 2.953 41.469-10.56 55.749a29.513 29.513 0 0 1-6.175 9.707c-.3.308-.712-.082-.555-.427 2.474-5.352 5.089-10.6 6.476-16.364a53.167 53.167 0 0 0 1.356-10.008 33.84 33.84 0 0 1-4.062 10.39 64.423 64.423 0 0 1-5.995 7.999 38.764 38.764 0 0 0-3.673 5.022 21.583 21.583 0 0 1-1.783 2.999c1.648 2.076 3.747 3.898 5.71 5.997 1.964 2.099 4.445 4.992 3.71 7.953-.997 4.026-5.538 6.807-8.461 9.325-2.758 2.377-2.383 4.461-2.818 7.669a10.495 10.495 0 0 1-2.038 4.932 13.11 13.11 0 0 1-5.928 4.371c2.638 2.998 3.634 6.559.696 9.932-2.368 2.729-5.321 4.161-5.778 8.141-.255 2.249.068 4.498-.449 6.747-2.623 11.109-18.474 7.743-26.133 5.607a93.942 93.942 0 0 1-14.734-5.48c-2.563 3.643-5.329 7.002-7.24 11.102a37.66 37.66 0 0 0-1.626 4.138c3.267 6.282 5.516 12.931 5.006 19.535.128.066.247.149.352.247 1.589.18 2.586-.082 3.313 2.062 1.147 3.358 1.439 7.286 2.091 10.772.277 1.499 1.619 4.58.412 5.997-.645.749-1.926.794-3.163.697.75 1.874 1.147 3.86 1.694 5.794.544 1.634 1 3.295 1.364 4.978a156.63 156.63 0 0 1 3.365 3.066c3.912 3.606 7.09 6.567 7.06 11.806.084.103.16.214.225.33a.475.475 0 0 1-.165.637h-.098c0 .18 0 .36-.045.548-.389 3.328-1.761 7.301 1.139 9.82 1.432 1.237 3.508 1.282 4.684 2.886 1.499 2.001 1.275 5.644 1.589 7.983.24 1.814.532 3.643.69 5.472 18.151 17.024 36.13 34.415 46.188 57.099l-.038-2.496Zm-180.495 34.805h-.232a4.294 4.294 0 0 0-4.055 3.808l-.224 1.934a1.13 1.13 0 0 1-1.057.997l-12.201.659a.217.217 0 1 0 0 .435h67.547a.185.185 0 0 0 .184-.184.184.184 0 0 0-.184-.183l-14.419.202a1.124 1.124 0 0 1-1.064-1.499c.322-.891.573-1.805.749-2.736a3.534 3.534 0 0 0-1.034-2.639 6.206 6.206 0 0 0-4.399-1.829 5.527 5.527 0 0 0-5.449 4.745l-.21 1.499c-.01.299-.138.581-.355.785a1.128 1.128 0 0 1-1.59-.053 1.125 1.125 0 0 1-.303-.807l-.232-3.47a7.206 7.206 0 0 0-7.025-6.682 7.204 7.204 0 0 0-7.312 6.367l-.24 2.189a1.34 1.34 0 0 1-.426.843 1.343 1.343 0 0 1-.878.349 1.302 1.302 0 0 1-1.356-1.14 4.291 4.291 0 0 0-4.235-3.59ZM296.89 298.986c-3.972-3.231-2.083-8.208-1.768-12.534-.817-.239-1.627-.607-2.346-.847-1.192-.404-3.073-.652-3.8-1.776l-.052.097c1.244 2.781 1.903 5.907 2.743 8.786a64.702 64.702 0 0 1 2.376 9.483 763.013 763.013 0 0 0 9.48 8.942c-.337-1.866-.6-3.748-.922-5.607-.457-2.691-.974-3.898-3.5-5.389a15.035 15.035 0 0 1-2.211-1.155Zm-15.356-56.679a.745.745 0 0 1-1.019.165c-.217-.142-.195 4.251-.187 4.595l.172 4.543c.098 2.609-.464 6.822 3.582 5.645 2.069-.6-.104-6.882-.457-8.831a27.037 27.037 0 0 0-.704-4.063c-.457-1.334-.72-1.716-1.387-2.054Zm-6.572-17.068a68.48 68.48 0 0 0-1.192 8.035 93.8 93.8 0 0 0-.39 14.82c.323 4.835 1.852 8.958 3.066 13.419h.037c2.706 2.084 5.321 4.272 7.892 6.514-.128-.457-.24-.915-.36-1.379a25.95 25.95 0 0 1-1.117-6.987 20.576 20.576 0 0 0-1.041-.12c-5.246-.36-3.748-6.656-3.897-10.562-.068-1.799-1.259-8.643 1.566-9.19a134.234 134.234 0 0 0-4.564-14.558v.008Zm-35.584-64.94c16.113 0 29.229-14.798 29.229-32.983 0-18.186-13.116-32.984-29.229-32.984s-29.228 14.798-29.228 32.984c0 18.185 13.108 32.975 29.228 32.975v.008Zm-19.215-5.127a30.27 30.27 0 0 0 21.089 8.808c17.904 0 32.473-16.44 32.473-36.649 0-20.21-14.569-36.627-32.473-36.627a30.108 30.108 0 0 0-20.235 8.036 29.119 29.119 0 0 1 18.384-6.664c17.357 0 31.476 15.802 31.476 35.232s-14.119 35.232-31.476 35.232a29.222 29.222 0 0 1-19.238-7.368ZM244.475 79.4c2.128.847 4.196 1.754 6.28 2.736 2.248 1.072 5.92 3.448 8.364 3.703 2.121.225 2.308-.465 3.065-2.301l1.664-4.026 3.327-8.05c1.199-2.91 2.401-5.815 3.605-8.719.749-1.799 3.695-6.394 1.851-8.373-.614-.66-3.53-.794-4.339-.974l-4.339-.982-7.645-1.755a489.15 489.15 0 0 1-11.833 28.756V79.4Zm1.911 2.474c.142 2.121-.87 4.497-1.664 6.506a31.849 31.849 0 0 1 11.032 3.344c.337-.887.775-1.732 1.304-2.52a.57.57 0 0 1 .172-.996h.157c-1.986-.907-4.024-2.204-5.336-2.894a51.637 51.637 0 0 1-5.658-3.418l-.007-.022Zm-1.342 84.707.225-.33-.375.052.15.278Zm3.583 8.246a107.833 107.833 0 0 0 4.631 10.097c3.47 6.409 7.674 12.361 11.841 18.328 1.971 2.826 4.167 5.9 6.288 9.146a62.904 62.904 0 0 0-3.567-10.563c-3.658-8.081-9.571-15.06-14.487-22.488a68.922 68.922 0 0 1-3.747-5.855c.002.045.002.09 0 .135a2.254 2.254 0 0 1-.959 1.222v-.022Zm89.745-34.85c-1.814-3.119-2.293-6.814-2.076-10.368.57-9.347 6.22-18.74 3.297-28.17-.414-1-.836-2-1.266-2.999-5.583-12.856-12.613-24.91-18.736-37.48.607 13.088-7.307 24.317-15.693 33.567-4.804 5.3-9.953 10.21-15.199 15.06-5.583 5.15-9.668 10.39-12.471 17.474v.255c0 18.913-12.043 34.737-27.999 38.365 8.244 19.618 25.166 32.729 44.667 40.375a70.005 70.005 0 0 0 14.584 4.093c5.014.794 12.853 1.574 15.701-3.891 1.926-3.696 0-8.246 2.113-11.994a15.053 15.053 0 0 1 3.065-3.493c.915-.847 2.249-1.852 2.833-2.931 1.432-2.684-.18-4.835-1.941-6.597a1.177 1.177 0 0 1-.172-.225 21.391 21.391 0 0 1-15.386-2.608.88.88 0 0 1 .667-1.589c5.343.749 10.23 3.44 15.738 1.611a10.394 10.394 0 0 0 6.243-5.165c.944-2.001.487-3.935.802-5.997.464-3.066 2.518-4.797 4.849-6.626 1.663-1.305 5.336-3.748 6.033-5.915.944-2.923-.75-4.977-2.601-6.956-2.391-2.601-5.268-4.723-7.052-7.796Zm1.814-15.412c1.169-4.401 1.319-8.756 1.393-13.179-.682 6.215-3.297 12.339-3.462 18.778.72-1.979 1.626-3.943 2.069-5.599Zm.981 6.139a23.052 23.052 0 0 0 2.938-10.765 29.87 29.87 0 0 0-.21-3.943 38.242 38.242 0 0 1-.389 5.248 40.455 40.455 0 0 1-1.934 7.803 50.99 50.99 0 0 0-.652 2.099l.247-.442Zm.51-23.905v-.053.157-.104ZM303.605 20a.463.463 0 0 1-.224.18 34.665 34.665 0 0 0-8.889 4.498 1.182 1.182 0 0 1 1.034.284c3.283 2.962 5.291 7.317 4.34 11.77-.105.487-.75.412-.915 0-.165-.413-.299-.877-.449-1.312-.255 3.268-1.417 6.491-2.608 9.512a.365.365 0 0 1-.446.252.36.36 0 0 1-.251-.447 55.82 55.82 0 0 0 1.049-9.347c0-1.597-.195-5.6-1.417-7.721-.172-.255-.359-.495-.539-.75a2.087 2.087 0 0 0-.802-.525.748.748 0 0 1-.495-.517l-.217.18a43.413 43.413 0 0 0-7.24 9.078 133.274 133.274 0 0 0-9.742 18.575c.109.147.202.306.277.473.944 2.144-1.192 5.322-1.979 7.241a9085.3 9085.3 0 0 1-4.699 11.41l-4.991 12.076a20.058 20.058 0 0 1-1.244 2.998c.3-.32.504-.717.592-1.147l.562-1.372c1.499-3.103 2.623-6.424 3.927-9.61a180.007 180.007 0 0 1 8.004-17.743.21.21 0 0 1 .264-.086.21.21 0 0 1 .119.25c-2.429 8.554-5.996 16.702-9.293 24.94-.75 1.83-1.447 5.78-3.313 6.822-1.379.75-3.897.36-5.718-.247a12.212 12.212 0 0 1-.75 2.998c9.81 5.81 16.863 16.694 18.362 29.505 1.244-3.643 3.747-6.866 6.347-9.685 4.819-5.202 10.395-9.692 15.341-14.79 5.209-5.367 10.62-10.982 14.375-17.489 3.582-6.221 5.126-12.9 6.602-19.835.113-.532.802-.427.952 0a.25.25 0 0 1 .206-.11.247.247 0 0 1 .206.11c9.248 11.702 15.948 25.578 21.809 39.243 2.758 6.417 5.328 13.186 5.171 20.277-.105 4.7-1.806 8.598-3.657 12.564 2.053-2.541 4.534-4.918 5.898-6.799 4.496-6.184 6.745-13.726 7.667-21.244a.247.247 0 1 1 .494 0c.085.879.133 1.754.143 2.623a42.897 42.897 0 0 1 .179 17.242c3.38-6.155 6.168-12.564 7.57-19.573a59.432 59.432 0 0 0-2.338-31.334c-3.575-10.112-10.013-18.358-17.342-26.034-6.476-6.747-13.865-12.969-19.044-20.847h-.075c-7.464-3.051-14.569-6.582-22.813-6.537ZM289.621 9.79c-4.564 2.249-8.132 7.084-11.242 10.975a113.175 113.175 0 0 0-16.487 28.898c2.333.544 4.666 1.091 6.999 1.641 1.297.307 3.605.465 5.299 1.222 3.357-7.736 7.284-15.435 12.313-22.204 3.867-5.202 9.848-10.907 16.765-11.027a.408.408 0 0 1 .322.128 17.797 17.797 0 0 1 2.376-.525c-2.735-6.23-10.335-2.324-13.842 1.005-2.998 2.848-5.441 6.341-7.772 9.745-4.759 6.904-8.558 14.445-12.111 22.001-.135.285-.577.075-.494-.21a79.701 79.701 0 0 1 16.487-30.577c2.998-3.47 6.79-6.836 11.527-7.346a9.13 9.13 0 0 1 3.68.36c-3.665-3.763-8.874-6.552-13.82-4.086Zm-72.516 195.321c.315-2.249 1.799-4.595 2.803-6.394a28.987 28.987 0 0 1 6.423-7.766.367.367 0 0 1 .419-.037.39.39 0 0 1 .113.097c.24-.75.517-1.447.832-2.152.165-.359.749-.179.749.203-.09 1.754-.247 3.493-.412 5.247a92.016 92.016 0 0 1 4.242-10.652c2.765-5.787 6.055-12.369 10.829-16.859l-.067-.337c-.595.035-1.192.052-1.791.052-19.284 0-34.977-17.563-34.977-39.145 0-21.581 15.686-39.145 34.977-39.145.449 0 .899 0 1.349.037.547-1.274 1.011-2.57 1.498-3.875a11.281 11.281 0 0 1 1.349-3.178 35.485 35.485 0 0 1-1.356-1.065c-.75.682-2.211-.352-1.686-1.5a502.149 502.149 0 0 0 12.126-29.557 1.152 1.152 0 0 1 1.379-.75l3.747.87a104.15 104.15 0 0 1 21.089-34.962c1.087-1.2 2.248-2.466 3.56-3.62-5.494-2.88-10.964-5.548-17.087-6.837a56.061 56.061 0 0 0-18.444-.473 139.934 139.934 0 0 0-35.359 9.348c-11.384 4.61-23.232 10.27-30.637 20.435a103.174 103.174 0 0 0-8.903 14.992 34.787 34.787 0 0 1 7.577-6.806c.907-.585 1.813.712 1.116 1.447-.464.5-.926.982-1.386 1.446-3.867 7.496-7.382 14.993-9.158 23.35a69.323 69.323 0 0 0-.502 26.575c2.375 13.373 8.169 26.094 10.297 39.46l.135-2.661c.005-.099.023-.198.052-.293l-.045-.104c-.547-1.342 1.627-1.92 2.166-.6 9.301 22.646 19.583 46.536 15.858 71.349.368-.57.75-1.14 1.102-1.732a1.066 1.066 0 0 1 1.597-.251c.156.133.271.309.329.506a32.366 32.366 0 0 0 1.229 3.463 62.05 62.05 0 0 1 3.313-4.633 1.187 1.187 0 0 1 1.431-.187c2.99 1.994 4.797 5.165 8.124 6.694Zm55.818 53.823a46.121 46.121 0 0 1-1.626-8.951 89.13 89.13 0 0 1 .375-18.11c.339-3.289.93-6.547 1.768-9.745l-.067-.353a45.935 45.935 0 0 0-.817-1.611c-3.41-6.425-7.652-12.354-11.796-18.321-4.257-6.125-8.364-12.339-11.654-19.048-.989-2.016-1.986-4.108-2.9-6.244-6.295 4.557-11.991 10.172-15.521 16.949a111.714 111.714 0 0 0-3.328 11.146 1.08 1.08 0 0 1-2.113-.284c-.082-4.273.12-8.584 1.356-12.654a78.266 78.266 0 0 0-4.631 7.646c-1.282 2.399-1.761 5.802-3.687 7.714a.711.711 0 0 1-.677.184.714.714 0 0 1-.5-.492c0-.135-.037-.277-.052-.412a.594.594 0 0 1-.165.045 5.304 5.304 0 0 1-2.458-.36c-.105 4.311-1.627 8.756-2.901 12.789a136.321 136.321 0 0 1-4.691 12.616c12.291 1.387 24.094 6.851 35.351 11.581 10.747 4.498 21.209 9.266 30.734 15.915Zm14.989 80.884a174.89 174.89 0 0 1 1.147 15.989c2.93-2.249 6.385-3.935 9.585-5.704 3.567-1.979 7.217-4.416 11.114-5.742a109.569 109.569 0 0 1-1.791-3.306c-2.151 1.192-4.422 2.196-6.602 3.328-.9.465-1.799.96-2.706 1.499.098.293.202.593.285.885.24.847-.877 1.199-1.334.562-.15-.21-.285-.427-.427-.637a33.601 33.601 0 0 1-6.58 2.908.292.292 0 0 1-.367-.318.294.294 0 0 1 .082-.169 27.517 27.517 0 0 1 5.748-4.153c-2.248-3.748-4.032-7.901-6.1-11.716-1.409-2.601-2.998-5.173-4.37-7.811.997 4.76 1.769 9.58 2.331 14.385h-.015Zm43.535 4.258c-4.497-5.435-9.405-10.607-14.427-15.6-13.49-13.381-27.991-25.757-39.045-41.296-.308-.428.374-.93.749-.555 4.009 4.423 8.244 8.718 12.606 12.946-.75-2.032-1.312-4.138-1.889-6.222-.607-2.196-1.342-4.498-1.776-6.844-.795 1.769-1.537 3.696-2.998 4.947a.49.49 0 0 1-.525.098.484.484 0 0 1-.299-.442c-.293-2.249.996-4.498 2.016-6.455.442-.839.914-1.686 1.439-2.503a.334.334 0 0 1 .055-.165.344.344 0 0 1 .132-.113 15.909 15.909 0 0 1 2.72-3.231c.405-.359 1.222 0 .997.585a30.13 30.13 0 0 1-1.641 3.523c1.236-.329 2.998.518 4.099.855.42.127.907.255 1.402.405-.637-4.138-4.429-6.657-7.397-9.251l-1.664-1.446c-1.124 2.413-3.178 4.392-4.946 6.341-2.084 2.287-4.22 4.753-6.933 6.297a.5.5 0 0 1-.682-.682c1.282-2.691 3.47-4.902 5.486-7.054 1.866-1.986 3.748-4.333 6.191-5.667-1.881-1.634-3.747-3.253-5.674-4.85a115.847 115.847 0 0 0-16.667-11.762 26.66 26.66 0 0 1-3.747 6.387c-1.387 1.897-2.893 3.951-5.119 4.858a74.143 74.143 0 0 1 17.604 20.382c6.101 10.255 10.313 21.649 13.101 33.343 2.997 3.591 5.246 7.826 7.546 11.859 2.009 3.568 4.272 7.256 5.816 11.124l2.368-1.281c2.174-1.192 4.347-2.482 6.625-3.494-.794-1.499-1.581-3.043-2.405-4.497a487.005 487.005 0 0 0-9.069-15.585c-6.445-10.615-14.164-20.667-20.047-31.589-.232-.427.337-.907.689-.532 8.304 8.86 14.757 20 21.067 30.314a484.355 484.355 0 0 1 9.458 16.162c.884 1.589 1.829 3.194 2.751 4.82.615-.204 1.24-.377 1.873-.517.465-.097.952.525.51.885-.442.359-1.019.749-1.544 1.132a48.375 48.375 0 0 1 4.429 10.052c.15.54-.614 1.064-.997.585a42.79 42.79 0 0 1-2.997-4.453c-3.178 2.616-7.158 4.438-10.717 6.432-3.56 1.994-7.008 4.212-10.815 5.479a139.85 139.85 0 0 1-.24 10.053c2.571-1.642 5.374-2.999 8.019-4.446 4.025-2.203 8.057-4.392 12.081-6.604 7.405-4.168 14.742-8.98 22.431-12.728Zm7.839 10.27a123.757 123.757 0 0 0-3.41-4.693 1.17 1.17 0 0 1-.225.142l-13.654 6.635a36.082 36.082 0 0 1 4.256 6.296 88.812 88.812 0 0 1 13.033-8.403v.023Zm-.862 32.676a13.238 13.238 0 0 0-1.566-2.931c-1.454 2.661-4.871 4.88-6.947 6.814-2.533 2.361-5.007 4.827-7.742 6.956 2.84-.472 5.705-.77 8.581-.892 2.121-1.559 4.062-3.478 6.033-5.21 1.806-1.597 2.346-2.429 1.641-4.76v.023Zm-5.486-9.101c-8.648 4.161-16.824 9.34-25.518 13.381a42.76 42.76 0 0 0 3.38 5.667c2.158 2.736 4.647 1.664 7.884 1.334.577-.06 1.162-.127 1.754-.21a95.11 95.11 0 0 1 8.049-8.613c2.083-2.106 4.556-5.712 7.434-6.941-.922-1.589-1.941-3.126-2.983-4.64v.022Zm78.437 28.156c.037-.51.082-1.005.127-1.499H384.95c.112.944.202 1.956.277 2.998a2.24 2.24 0 0 1 1.401-.412 3.206 3.206 0 0 1 2.249 1.184h18.166a11.5 11.5 0 0 1 .142-.659 3.181 3.181 0 0 1 2.758-2.069 2.305 2.305 0 0 1 1.432.427v.03Zm-1.004-3.748v-2.999H384.89v2.999h25.481Zm12.74-9.745v-5.248h-5.246v5.248h5.246Zm6.947 8.995h4.295v-2.998h-7.825c.212.735.36 1.488.443 2.249.42-.225.896-.326 1.371-.293a1.638 1.638 0 0 1 1.701 1.035l.015.007Zm-75.895-31.484v7.496a1.331 1.331 0 0 1 0 1.365v29.385h12.058a55.96 55.96 0 0 1 .442-3.748h-11.017v-8.246h12.741v5.749h.24c.46-.031.919.068 1.326.285a8.321 8.321 0 0 1 .877-3.261c.645-.967 2.248-.929 2.803-.832.13.023.258.055.382.098.089-.676.235-1.343.435-1.994a2.93 2.93 0 0 1 3.29-2.084 3.184 3.184 0 0 1 2.645 3.193v1.297a1.787 1.787 0 0 1 1.304-.622h.053a1.9 1.9 0 0 1 .907.24v-1.342h29.977v1.432c.203-.488 1.057-1.897 2.399-1.829a1.835 1.835 0 0 1 1.349.652v-1.379a3.367 3.367 0 0 1 .187-1.125h-.929v-9.745h9.742v9.745h-2.997c.204.653.352 1.323.442 2.002l.269-.068v-.442h13.49v7.496h-6.123c.18 1.274.338 2.826.465 4.498h7.907V370.08l-84.664.015Zm3.747 28.486v3.748h8.244v-3.748h-8.244Zm5.995-16.492h-8.244v-8.995h8.244v8.995Zm-2.248-6.747h-3.747v4.498h3.747v-4.498Zm14.989 5.997h-9.743v-8.245h9.743v8.245Zm-2.249-5.997h-5.246v3.749h5.246v-3.749Zm14.24 6.747h-8.993v-8.995h8.993v8.995Zm-2.249-6.747h-4.496v4.498h4.496v-4.498Zm12.741 7.497h-8.244v-9.745h8.244v9.745Zm-2.248-7.497h-3.748v5.248h3.748v-5.248Zm14.988 6.747h-8.243v-8.246h8.243v8.246Zm-2.248-5.997h-3.747v3.748h3.747v-3.748Zm14.239 5.997h-8.993v-8.995h8.993v8.995Zm-2.248-6.747h-4.497v4.498h4.497v-4.498Zm14.989 8.246h-10.492v-10.494h10.492v10.494Zm-2.248-8.246h-5.996v5.997h5.996v-5.997Zm-69.698 17.991h-8.994v-8.995h8.994v8.995Zm-2.249-6.746h-4.496v4.497h4.496v-4.497Zm14.24 6.746h-9.743v-8.995h9.743v8.995Zm-2.249-6.746h-5.246v4.497h5.246v-4.497Zm14.24 6.746h-8.993v-8.995h8.993v8.995Zm-2.249-6.746h-4.496v4.497h4.496v-4.497Zm15.739 7.496h-11.242v-9.745h11.242v9.745Zm-2.249-7.496h-6.745v5.247h6.745v-5.247Zm14.989 7.496h-11.241v-8.995h11.241v8.995Zm-2.248-6.747h-6.745v4.498h6.745v-4.498Zm16.772-3.463h6.925v9.175h-6.925v-9.175Zm1.679 7.496h3.567v-5.817h-3.567v5.817ZM415.092 63.246c13.018 0 23.607 8.073 23.607 17.99v.158c.874-.1 1.752-.152 2.631-.157 9.743 0 17.612 5.72 17.612 12.743 0 4.843-3.807 9.265-9.743 11.402v8.718l-8.311-7.391c-7.57-.143-14.202-3.801-16.398-8.996-3.03.998-6.2 1.505-9.391 1.5-.562 0-1.131 0-1.701-.06l-10.664 11.559V96.559c-6.955-3.261-11.242-9.063-11.242-15.322-.007-9.918 10.582-17.991 23.6-17.991Zm23.382 20.427a14.987 14.987 0 0 1-2.413 5.81h14.24a1.125 1.125 0 0 1 0 2.248h-15.739a1.111 1.111 0 0 1-.292-.045 22.84 22.84 0 0 1-7.697 5.247c1.911 4.416 7.899 7.497 14.734 7.497h.375a1.119 1.119 0 0 1 1.102.937l4.144 3.68v-4.242a2.078 2.078 0 0 1 1.012-1.41c5.306-1.746 8.731-5.465 8.731-9.46 0-5.787-6.895-10.495-15.364-10.495-.948.018-1.894.095-2.833.233Zm-44.741-2.436c0 5.584 4.092 10.802 10.672 13.62a1.115 1.115 0 0 1 .577.975v9.115l7.045-7.631a1.11 1.11 0 0 1 1.019-.323v-.112c.682.045 1.371.075 2.053.075 11.774 0 21.359-7.061 21.359-15.742 0-8.68-9.585-15.742-21.359-15.742-11.773 0-21.366 7.084-21.366 15.765Zm6.37-4.498h29.978a1.125 1.125 0 0 0 0-2.25h-29.978a1.125 1.125 0 0 0 0 2.25Zm0 5.997h14.989a1.125 1.125 0 0 0 0-2.25h-14.989a1.125 1.125 0 0 0 0 2.25Zm29.978-2.25H418.09a1.125 1.125 0 0 0 0 2.25h11.991a1.125 1.125 0 0 0 0-2.25Zm-30.727 8.247h30.727a1.125 1.125 0 0 0 0-2.25h-30.727a1.125 1.125 0 0 0 0 2.25Zm32.226 6.746a1.123 1.123 0 0 0-.795 1.92c.211.21.496.33.795.33h19.485a1.125 1.125 0 0 0 0-2.25H431.58Zm-53.45 32.436h20.234a1.125 1.125 0 1 0 0-2.249H378.13a1.123 1.123 0 0 0-1.125 1.125 1.125 1.125 0 0 0 1.125 1.124Zm0 5.997h20.234a1.125 1.125 0 1 0 0-2.249H378.13a1.123 1.123 0 0 0-1.125 1.125 1.125 1.125 0 0 0 1.125 1.124Zm0 5.997h20.234a1.125 1.125 0 1 0 0-2.249H378.13a1.123 1.123 0 0 0-1.125 1.125 1.125 1.125 0 0 0 1.125 1.124Zm-7.285-98.073a10.864 10.864 0 0 1 4.775-9 10.859 10.859 0 0 1 10.128-1.092 10.862 10.862 0 0 1 6.581 7.777 10.864 10.864 0 0 1-2.748 9.812l8.626 7.383a1.122 1.122 0 0 1 .124 1.586 1.125 1.125 0 0 1-1.585.123l-8.926-7.608a10.861 10.861 0 0 1-15.425-3.383 10.876 10.876 0 0 1-1.55-5.613v.015Zm2.248 0a8.623 8.623 0 0 0 10.3 8.455 8.616 8.616 0 0 0 6.772-6.773 8.621 8.621 0 0 0-8.453-10.302 8.626 8.626 0 0 0-8.619 8.62Zm-98.581 358.709a15.953 15.953 0 0 1-13.334 15.72 15.943 15.943 0 0 1-17.7-10.563 1.38 1.38 0 0 1-.158-.397v-.053a15.744 15.744 0 0 1-.292-8.298c.011-.114.039-.225.083-.33a15.929 15.929 0 0 1 15.356-12.025 15.938 15.938 0 0 1 15.491 11.853c.126.185.194.405.194.629v.09c.24 1.109.361 2.24.36 3.374Zm-2.795 3.793c.589-1.99.702-4.091.329-6.132h-4.301c.06.749.105 1.544.105 2.339 0 1.506-.123 3.011-.368 4.497a14.944 14.944 0 0 0 4.227-.697l.008-.007Zm-7.112 3.103c-.787 0-1.649.06-2.586.083-1.177 0-2.361.037-3.53.037-2.083 0-4.122-.045-5.995-.127 1.244 4.033 3.507 6.806 6.048 6.806 2.54 0 4.818-2.766 6.063-6.799Zm.554-2.249a24.65 24.65 0 0 0 .442-4.647c0-.795-.045-1.575-.112-2.339h-13.865a26.45 26.45 0 0 0-.112 2.339 24.56 24.56 0 0 0 .45 4.662c4.054.188 9.158.18 13.197-.022v.007Zm-19.74-.749c1.374.378 2.788.592 4.212.637a27.56 27.56 0 0 1-.375-4.498c0-.802.045-1.574.105-2.339h-4.294a13.289 13.289 0 0 0 .359 6.23l-.007-.03Zm6.52-8.479h13.228c-.99-5.262-3.613-9.16-6.61-9.16-2.998 0-5.621 3.898-6.61 9.146l-.008.014Zm12.613-7.743a19.054 19.054 0 0 1 2.945 7.736h3.987a13.756 13.756 0 0 0-6.932-7.736Zm-18.893 7.729h3.987a19.055 19.055 0 0 1 2.915-7.729 13.757 13.757 0 0 0-6.902 7.729Zm6.902 16.918a17.546 17.546 0 0 1-2.466-5.554 50.5 50.5 0 0 1-3.327-.323l-.352-.052a13.784 13.784 0 0 0 6.145 5.929Zm18.099-5.997c-.899.158-2.091.293-3.695.405a17.535 17.535 0 0 1-2.473 5.555 13.783 13.783 0 0 0 6.198-5.93l-.03-.03ZM169.306 212.682a1.127 1.127 0 0 0-1.93.379 1.115 1.115 0 0 0 .431 1.271l7.584 7.046 14.644-18.178a1.128 1.128 0 0 0-.172-1.582 1.122 1.122 0 0 0-1.581.172l-13.131 16.305-5.845-5.413Zm152.691 71.379a1.124 1.124 0 0 0 1.124-1.124v-10.495a1.124 1.124 0 1 0-2.249 0v10.495a1.126 1.126 0 0 0 1.132 1.124h-.007Zm0 15.225a1.124 1.124 0 0 0 1.124-1.124v-10.495a1.128 1.128 0 0 0-1.124-1.125 1.123 1.123 0 0 0-1.125 1.125v10.495a1.126 1.126 0 0 0 1.132 1.124h-.007Zm1.948-12.931h10.492a1.124 1.124 0 1 0 0-2.249h-10.492a1.125 1.125 0 0 0 0 2.249Zm-3.934-2.249h-10.493a1.12 1.12 0 0 0-.794.33 1.121 1.121 0 0 0 0 1.59c.21.211.496.329.794.329h10.493a1.124 1.124 0 1 0 0-2.249ZM71.414 352.839a1.127 1.127 0 0 0 1.124-1.125V341.22a1.125 1.125 0 0 0-2.248 0v10.494a1.126 1.126 0 0 0 1.124 1.125Zm0 2.481a1.127 1.127 0 0 0-1.124 1.125v10.494a1.125 1.125 0 0 0 2.248 0v-10.494a1.126 1.126 0 0 0-1.124-1.125Zm12.433-2.459H73.355a1.124 1.124 0 0 0 0 2.249h10.492a1.123 1.123 0 0 0 .795-1.919 1.124 1.124 0 0 0-.795-.33Zm-14.449 0H58.906a1.124 1.124 0 0 0 0 2.249h10.492a1.123 1.123 0 0 0 .795-1.919 1.124 1.124 0 0 0-.795-.33Zm63.035-165.381a1.125 1.125 0 0 0 1.125-1.124v-10.495a1.125 1.125 0 0 0-2.249 0v10.495a1.125 1.125 0 0 0 1.124 1.124Zm0 2.481a1.125 1.125 0 0 0-1.124 1.125v10.494a1.125 1.125 0 0 0 2.249 0v-10.494a1.125 1.125 0 0 0-1.125-1.125Zm1.941-.21h10.493a1.124 1.124 0 1 0 0-2.248h-10.493a1.125 1.125 0 0 0 0 2.248Zm-14.449 0h10.492a1.125 1.125 0 1 0 0-2.248H119.91a1.124 1.124 0 1 0 0 2.248h.015Zm246.986-12.945a1.122 1.122 0 0 0 .337 1.551 6.37 6.37 0 0 1 2.717 7.019 6.366 6.366 0 0 1-5.866 4.713 6.373 6.373 0 0 1-4.188-11.402 1.126 1.126 0 0 0-1.379-1.777 8.622 8.622 0 0 0 5.676 15.42 8.617 8.617 0 0 0 7.648-11.723 8.615 8.615 0 0 0-3.387-4.146 1.112 1.112 0 0 0-.853-.149 1.11 1.11 0 0 0-.705.501v-.007Zm-1.971 8.058v-11.739a1.125 1.125 0 0 0-2.249 0v11.746c0 .299.119.585.329.796a1.128 1.128 0 0 0 1.59 0c.211-.211.33-.497.33-.796v-.007ZM75.184 257.525v-37.354a8.697 8.697 0 0 1 8.678-8.681h61.08a8.695 8.695 0 0 1 8.693 8.681v37.354a8.698 8.698 0 0 1-8.678 8.68H83.862a8.693 8.693 0 0 1-8.678-8.68Zm2.248-37.699h73.955a6.44 6.44 0 0 0-6.415-6.087h-61.11a6.44 6.44 0 0 0-6.415 6.087h-.015Zm0 37.699a6.438 6.438 0 0 0 6.43 6.431h61.08a6.435 6.435 0 0 0 6.43-6.431v-35.45h-73.94v35.45Zm67.914-39.513a1.124 1.124 0 1 0 0-2.248 1.124 1.124 0 0 0 0 2.248Zm-4.871 0a1.124 1.124 0 1 0 0-2.248 1.124 1.124 0 0 0 0 2.248Zm-5.246 0a1.124 1.124 0 1 0 0-2.248 1.124 1.124 0 0 0 0 2.248Zm-32.601 32.234h2.249v-20.99h-2.249v8.434h-6.37v-8.404H94.01v10.683h8.618v10.277Zm27.452 0h2.249v-20.99h-2.249v8.434h-6.37v-8.404h-2.248v10.683h8.618v10.277Zm-10.492.097h-11.991v-21.341h11.991v21.341Zm-2.068-19.302h-7.862v17.241h7.839l.023-17.241Zm133.123 197.547c-.503 10.824-14.24 11.447-22.184 11.477-7.614 0-20.707.247-20.46-10.555.15-6.747 6.828-9.992 12.396-8.066 2.713-8.081 16.907-9.745 19.643-1.919a5.14 5.14 0 0 1 5.074-.427c3.649 1.507 5.703 5.689 5.531 9.49Zm-2.249 0a8.514 8.514 0 0 0-.997-4.43c-.854-1.537-5.411-6.155-6.932-1.552a1.133 1.133 0 0 1-2.211-.3c-.067-8.568-13.55-6.642-15.79.135.347.229.68.479.996.75 1.117.922-.479 2.503-1.588 1.589a7.807 7.807 0 0 0-.75-.555 1.33 1.33 0 0 1-.749-.442c-5.246-2.504-11.579 2.046-9.743 8.201 1.836 6.154 10.057 5.742 15.184 5.847 5.126.105 11.189.42 16.098-1.499 3.155-1.312 6.28-4.033 6.482-7.744Zm97.322 4.843a2.436 2.436 0 0 1-2.428 2.428h-67.547a2.464 2.464 0 0 1-2.533-2.399 2.465 2.465 0 0 1 2.398-2.533l11.242-.622.112-.997a6.572 6.572 0 0 1 8.47-5.51 6.57 6.57 0 0 1 3.139 2.121 9.455 9.455 0 0 1 9.046-7.407 9.45 9.45 0 0 1 9.323 7.055 7.776 7.776 0 0 1 6.168-3.073 8.503 8.503 0 0 1 6.033 2.533 5.704 5.704 0 0 1 1.641 4.318 9.79 9.79 0 0 1-.405 1.822l12.868-.135a2.43 2.43 0 0 1 1.734.687 2.435 2.435 0 0 1 .739 1.712Zm-2.248 0a.18.18 0 0 0-.18-.18l-14.412.202a1.127 1.127 0 0 1-.92-.473 1.118 1.118 0 0 1-.144-1.026c.323-.891.574-1.806.75-2.736a3.552 3.552 0 0 0-1.035-2.639 6.192 6.192 0 0 0-4.399-1.829 5.522 5.522 0 0 0-5.441 4.782l-.21 1.5a1.121 1.121 0 0 1-1.116.967h-.038a1.129 1.129 0 0 1-1.079-1.05l-.232-3.47a7.206 7.206 0 0 0-7.025-6.682 7.205 7.205 0 0 0-7.312 6.367l-.247 2.189a1.328 1.328 0 0 1-1.304 1.191 1.311 1.311 0 0 1-1.357-1.139 4.293 4.293 0 0 0-4.257-3.651h-.232a4.3 4.3 0 0 0-4.054 3.808l-.225 1.934a1.125 1.125 0 0 1-1.057.997l-12.223.683a.217.217 0 1 0 0 .434h67.547a.173.173 0 0 0 .142-.044.193.193 0 0 0 .045-.061.188.188 0 0 0 .015-.074Z" fill="currentColor"></path></svg><svg fill="none" id="icon-copyright" viewBox="0 0 26 26"><path d="M12.87 9.902c1.387.065 1.744 1.246 1.766 1.798h1.939c-.087-2.145-1.614-3.456-3.737-3.456-2.395 0-4.171 1.506-4.171 4.908 0 2.101 1.007 4.593 4.16 4.593 2.405 0 3.694-1.787 3.726-3.196h-1.939c-.032.64-.487 1.495-1.766 1.56-1.419-.043-2.015-1.148-2.015-2.957 0-3.131 1.387-3.229 2.037-3.25ZM13 2.167C7.02 2.167 2.167 7.02 2.167 13S7.02 23.833 13 23.833 23.833 18.98 23.833 13 18.98 2.167 13 2.167Zm0 19.5c-4.778 0-8.667-3.89-8.667-8.667 0-4.777 3.89-8.667 8.667-8.667 4.777 0 8.667 3.89 8.667 8.667 0 4.778-3.89 8.667-8.667 8.667Z" fill="currentColor"></path></svg><svg fill="none" id="icon-envelope" viewBox="0 0 30 30"><path d="M27 4H3C1.35 4 .015 5.294.015 6.875L0 24.125C0 25.706 1.35 27 3 27h24c1.65 0 3-1.294 3-2.875V6.875C30 5.294 28.65 4 27 4Zm0 5.75-12 7.188L3 9.75V6.875l12 7.188 12-7.188V9.75Z" fill="currentColor"></path></svg><svg fill="none" id="icon-figma" viewBox="0 0 20 20"><path fill-rule="evenodd" clip-rule="evenodd" d="M9 0H7a4 4 0 0 0-2.646 7A3.99 3.99 0 0 0 3 10a3.99 3.99 0 0 0 1.354 3A4 4 0 1 0 11 16v-2.535A4 4 0 0 0 15.646 7 4 4 0 0 0 13 0H9Zm2 2v4h2a2 2 0 1 0 0-4h-2ZM9 8H7a2 2 0 1 0 0 4h2V8ZM7 6h2V2H7a2 2 0 1 0 0 4Zm4 4a2 2 0 1 0 4 0 2 2 0 0 0-4 0Zm-4 4h2v2a2 2 0 1 1-2-2Z" fill="currentColor"></path></svg><svg fill="none" id="icon-github" viewBox="0 0 30 30"><path fill-rule="evenodd" clip-rule="evenodd" d="M15.012 0C6.711 0 0 6.875 0 15.38c0 6.8 4.3 12.554 10.265 14.59.746.154 1.019-.33 1.019-.737 0-.357-.025-1.579-.025-2.852-4.176.916-5.045-1.834-5.045-1.834-.671-1.782-1.666-2.24-1.666-2.24-1.367-.943.1-.943.1-.943 1.516.102 2.312 1.58 2.312 1.58 1.341 2.342 3.504 1.68 4.374 1.272.124-.993.522-1.68.944-2.062-3.33-.357-6.835-1.68-6.835-7.589 0-1.68.597-3.055 1.541-4.125-.149-.382-.671-1.96.15-4.074 0 0 1.267-.408 4.125 1.579a14.207 14.207 0 0 1 3.753-.51c1.268 0 2.56.179 3.753.51 2.859-1.987 4.126-1.58 4.126-1.58.82 2.114.298 3.693.15 4.075.969 1.07 1.54 2.445 1.54 4.125 0 5.908-3.504 7.207-6.86 7.589.547.483 1.02 1.4 1.02 2.852 0 2.062-.025 3.717-.025 4.227 0 .407.273.891 1.019.738C25.7 27.934 30 22.18 30 15.381 30.024 6.874 23.289 0 15.012 0Z" fill="currentColor"></path></svg><svg fill="none" id="icon-html" viewBox="0 0 20 20"><path d="m2 1 1.44 16.179L9.896 19l6.503-1.821L17.84 1H2Zm12.712 5.276H7.13l.17 2.036h7.244l-.563 6.12-4.039 1.113v.011h-.045l-4.073-1.125-.248-3.126h1.969l.146 1.575 2.205.596 2.216-.596.248-2.566H5.475l-.528-6.006h9.945l-.18 1.968Z" fill="currentColor"></path></svg><svg fill="none" id="icon-js" viewBox="0 0 21 21"><path d="M11.503 9.82H9.63c0 1.615-.007 3.22-.007 4.838a7.927 7.927 0 0 1-.123 2.31l.008-.051c-.275.574-.983.5-1.305.4a1.62 1.62 0 0 1-.687-.703l-.004-.01a.688.688 0 0 0-.107-.164l-1.52.938a2.97 2.97 0 0 0 1.091 1.258l.012.007a3.684 3.684 0 0 0 2.698.332l-.025.006a2.352 2.352 0 0 0 1.503-1.163l.006-.013c.24-.61.377-1.316.377-2.054 0-.258-.017-.513-.05-.763l.004.03c.01-1.713 0-3.425 0-5.15l.002-.048Zm7.487 6.038c-.146-.912-.74-1.68-2.503-2.394-.614-.287-1.295-.488-1.498-.95a.966.966 0 0 1-.037-.595v.007a.958.958 0 0 1 1.268-.548l-.006-.003c.368.127.658.396.81.742l.003.009c.862-.564.862-.564 1.462-.938a3.476 3.476 0 0 0-.489-.652l.001.002a2.79 2.79 0 0 0-2.374-.86l.013-.002-.588.074c-.57.13-1.058.426-1.422.835l-.002.003a2.613 2.613 0 0 0 .467 3.721l.007.004c1.138.85 2.801 1.037 3.014 1.838.2.975-.725 1.288-1.639 1.175a2.204 2.204 0 0 1-1.456-1.102l-.006-.011-1.525.875c.18.358.405.663.674.924 1.45 1.464 5.075 1.39 5.726-.836a2.803 2.803 0 0 0 .058-1.394l.004.019.038.057ZM.628.628h20v20h-20v-20Z" fill="currentColor"></path></svg><svg fill="none" id="icon-mail" viewBox="0 0 36 30"><path d="M30 4H6C4.35 4 3.015 5.294 3.015 6.875L3 24.125C3 25.706 4.35 27 6 27h24c1.65 0 3-1.294 3-2.875V6.875C33 5.294 31.65 4 30 4Zm0 5.75-12 7.188L6 9.75V6.875l12 7.188 12-7.188V9.75Z" fill="currentColor"></path></svg><svg fill="none" id="icon-photoshop" viewBox="0 0 20 20"><path d="M16.634 0H3.327A3.337 3.337 0 0 0 0 3.327v13.307a3.337 3.337 0 0 0 3.327 3.327h13.307a3.337 3.337 0 0 0 3.327-3.327V3.327A3.337 3.337 0 0 0 16.634 0Zm-7.07 10.157c-.693.693-1.782 1.018-3.012 1.018-.325 0-.622-.014-.849-.056v3.591H3.978V5.307c.623-.113 1.485-.198 2.659-.198 1.272 0 2.206.269 2.814.778.565.467.933 1.216.933 2.107 0 .905-.283 1.654-.82 2.163Zm3.619 4.695c-.834 0-1.584-.198-2.093-.481l.34-1.258c.395.24 1.145.495 1.767.495.764 0 1.103-.312 1.103-.764 0-.467-.283-.707-1.131-1.004-1.344-.467-1.91-1.202-1.895-2.008 0-1.216 1.004-2.163 2.602-2.163.763 0 1.428.198 1.824.41l-.34 1.23a3.094 3.094 0 0 0-1.456-.396c-.622 0-.962.297-.962.721 0 .438.326.65 1.202.962 1.245.452 1.824 1.088 1.839 2.107 0 1.244-.976 2.149-2.8 2.149ZM8.645 8.064c0 1.118-.792 1.754-2.093 1.754-.354 0-.636-.014-.849-.07V6.522c.184-.042.524-.085 1.004-.085 1.202 0 1.938.566 1.938 1.626Z" fill="currentColor"></path></svg><svg fill="none" id="icon-react" viewBox="0 0 20 20"><path d="M20 9.948c0-1.278-1.37-2.466-3.653-3.287l-.41-.137V6.34c.501-2.512.136-4.384-1.005-5.069-1.142-.685-2.832-.045-4.658 1.553L10 3.099l-.091-.091h-.092C7.945 1.272 6.12.678 4.977 1.318c-1.141.64-1.461 2.42-1.004 4.749.048.148.078.301.09.457l-.501.182C1.324 7.482 0 8.67 0 9.948c0 1.279 1.461 2.557 3.744 3.38l.32.09a1.644 1.644 0 0 0-.091.503c-.457 2.283-.046 4.018 1.004 4.657 1.05.64 2.968.046 4.795-1.552l.274-.229.365.366c1.279 1.096 2.557 1.69 3.562 1.69.354.007.703-.088 1.004-.275 1.142-.639 1.553-2.511 1.05-4.885V13.6a1.972 1.972 0 0 1-.045-.228h.137c2.42-.868 3.881-2.1 3.881-3.425Zm-1.324 0c0 .548-1.005 1.507-2.968 2.146h-.092c-.239-.734-.529-1.451-.867-2.146.32-.73.593-1.461.822-2.146l.365.091c1.827.64 2.74 1.507 2.74 2.055Zm-7.397 6.21-.366-.274c.523-.58 1.011-1.189 1.461-1.826l2.33-.365c.045.09.045.182.09.228.163.827.194 1.675.092 2.511-.064.4-.257.769-.548 1.05-.457.274-1.69-.09-3.06-1.324Zm-.594-2.009-.64.822-.73-.822h1.37ZM4.429 7.756c.23.753.52 1.486.868 2.192a15.07 15.07 0 0 0-.868 2.238l-.274-.092a6.575 6.575 0 0 1-2.192-1.187 1.416 1.416 0 0 1-.639-.959c0-.548.913-1.415 2.649-2.009l.456-.183Zm4.886-2.009L10 4.971l.685.776h-1.37Zm5.023-3.333c.502.274.776 1.644.365 3.653a.184.184 0 0 1-.045.137l-2.284-.365a19.668 19.668 0 0 0-1.46-1.827l.273-.228c1.461-1.279 2.649-1.644 3.15-1.37Zm-7.626 4.84-.365.594-.32.593c-.137-.32-.228-.639-.365-1.004l1.05-.183Zm-1.05 5.206c.137-.32.228-.64.365-1.005l.32.594.365.593-1.05-.182Zm7.626-2.512c-.233.5-.492.989-.777 1.461-.274.503-.593.96-.867 1.416H8.356c-.32-.502-.64-.959-.867-1.416-.287-.471-.547-.959-.777-1.46.222-.507.481-.995.777-1.462.262-.473.552-.93.867-1.37a19.772 19.772 0 0 1 3.288 0c.32.457.593.913.867 1.37.296.467.555.955.777 1.461Zm.365-2.1-.365-.594 1.05.228a8.227 8.227 0 0 1-.365.96l-.32-.594Zm-.365 4.794.365-.593.32-.64.41 1.05-1.095.183ZM9.04 3.966h.046L7.626 5.793l-2.284.365c-.045-.137-.045-.228-.09-.365-.366-1.872-.092-3.15.364-3.38a.594.594 0 0 1 .411-.09c.64 0 1.736.456 2.968 1.552l.046.091ZM5.251 14.15c.008-.14.04-.28.091-.41l2.33.319c.438.646.927 1.256 1.46 1.826l-.09.092-.092.09a6.528 6.528 0 0 1-2.146 1.325 1.461 1.461 0 0 1-1.142.091c-.502-.273-.776-1.506-.41-3.333Z" fill="currentColor"></path><path d="M10 7.939a2.01 2.01 0 1 0-.091 4.017A2.01 2.01 0 0 0 10 7.94Z" fill="currentColor"></path></svg><svg fill="none" id="icon-telegram" viewBox="0 0 30 30"><path fill-rule="evenodd" clip-rule="evenodd" d="M30 15c0 8.284-6.716 15-15 15-8.284 0-15-6.716-15-15C0 6.716 6.716 0 15 0c8.284 0 15 6.716 15 15Zm-14.463-3.926c-1.458.607-4.374 1.862-8.747 3.768-.71.282-1.082.558-1.116.828-.057.457.514.637 1.293.881l.328.105c.766.249 1.796.54 2.332.552.485.01 1.028-.19 1.626-.601 4.086-2.758 6.195-4.152 6.327-4.182.094-.022.223-.048.311.03s.079.225.07.265c-.057.241-2.3 2.328-3.462 3.407-.362.337-.619.576-.671.63-.118.122-.238.238-.353.349-.711.686-1.245 1.2.03 2.04.612.404 1.102.737 1.591 1.07.534.364 1.067.727 1.756 1.179.175.115.343.234.507.35.621.444 1.18.842 1.87.778.4-.037.814-.413 1.024-1.538.497-2.656 1.474-8.412 1.7-10.784a2.643 2.643 0 0 0-.025-.59.632.632 0 0 0-.214-.407c-.18-.145-.457-.176-.581-.174-.564.01-1.43.311-5.595 2.044Z" fill="currentColor"></path></svg><svg fill="none" id="icon-vk" viewBox="0 0 30 30"><path d="M21.617 17.454c-1.235-1.181-1.323-1.181-.265-2.545C22.676 13.182 24.44 11 22.852 11h-2.911c-.53 0-.618.364-.794.818-.706 1.728-2.118 4-2.647 3.636-.53-.363-.265-1.727-.265-3.908a.722.722 0 0 0-.177-.728c-.176-.181-.44-.363-.706-.363-.44-.091-.882-.182-1.323-.182-1.676 0-2.823.727-2.206.818 1.147.182 1.059 2.727.794 3.818-.44 1.91-2.206-1.454-3-3.182A.865.865 0 0 0 8.735 11H6.441c-.353 0-.618.091-.618.364 0 .454 2.206 4.909 4.236 7.181 2.029 2.182 4.058 2 5.47 2 .176 0 .353-.09.441-.182a.706.706 0 0 0 .177-.454c0-1.455.529-2.182 1.5-1.182 1.058 1.09 1.323 1.818 2.647 1.818h2.382c.617 0 .794-.182.794-.454.088-.637-.97-1.819-1.853-2.637ZM15.352.001C23.558.183 30.087 7 30 15.273c-.088 8.272-6.882 14.817-15.088 14.726C6.617 29.91 0 23.272 0 15 .088 6.637 6.97-.09 15.352 0Z" fill="currentColor"></path></svg><svg fill="none" id="logo" viewBox="0 0 60 60"><path d="m6.595 27.673 5.002-4.624 15.351 14.197.636.587v17.874L32.227 60V46.71h.02v-8.878l.636-.588 15.366-14.207 5.156 4.767H60L36.798 6.348v6.098l8.485 7.845-13.034 12.052V19.136h-.02V2.123L29.931 0l-3.298 3.049L0 27.673h6.595Zm20.99-19.406v24.076l-13.02-12.037 13.02-12.039Z" fill="currentColor"></path></svg></svg>