<svg version="1.0" xmlns="http://www.w3.org/2000/svg" width="933.333" height="933.333" viewBox="0 0 700 700"><path d="M346.9 1.8c-.8 1-4.7 4.6-8.5 8.2-15.4 14.3-29.7 27.6-30.8 28.5-.6.5-7 6.4-14.1 13s-13.5 12.4-14.1 13c-.7.5-3.6 3.3-6.5 6-3 2.8-9 8.4-13.4 12.5-4.4 4-11 10.1-14.6 13.4-3.6 3.4-9 8.3-12 11.1-3 2.7-8.8 8.1-12.9 12-4.1 3.8-12.7 11.7-18.9 17.5-6.3 5.8-13.1 12.1-15.2 14-2 1.9-6.1 5.7-9 8.4-3 2.7-10.3 9.4-16.3 15S149 185.2 148 186c-.9.8-6.8 6.2-13 12s-12.5 11.6-14 13c-2.7 2.4-23.2 21.5-25.4 23.5-.6.6-6.7 6.2-13.6 12.5-6.9 6.3-13.7 12.6-15.1 14-3.1 2.9-9.6 8.9-23.9 22.2-5.8 5.3-11.9 10.9-13.6 12.5-1.6 1.5-8.3 7.7-14.8 13.8-6.5 6-12.2 11.1-12.7 11.3-.5.2-.9.8-.9 1.3s15.5.9 37.8.9h37.7l2.7-2.3c2.4-2.1 18.4-16.8 27.9-25.7 4.8-4.5 21.2-19.7 25.2-23.2l3-2.8 4.1 3.7c2.3 2 6.1 5.6 8.6 7.9 2.5 2.3 6.1 5.6 8 7.4 1.9 1.8 8.5 7.8 14.5 13.5 6.1 5.6 13.7 12.6 16.9 15.6 6.7 6.2 7.1 6.5 23.2 21.4 6.5 6 14.1 13 16.8 15.5 2.7 2.5 6.3 5.8 8.1 7.5 1.7 1.6 7.8 7.3 13.5 12.5 5.6 5.2 11.2 10.4 12.4 11.5 1.2 1.1 12.9 12 26.1 24.2 13.2 12.2 26.4 24.3 29.2 27l5.3 5-.2 104-.1 104 5.4 5.1c3 2.7 7 6.4 8.9 8.2 1.9 1.8 7.9 7.3 13.3 12.4 5.5 5 11.1 10.2 12.6 11.6 1.5 1.4 5.3 4.9 8.4 7.8l5.7 5.4.1-79.9c0-43.9.1-102.1.1-129.3l.1-49.5 4.2-4c5.4-5.1 25.2-23.4 27.8-25.8 1.2-1 7.2-6.6 13.5-12.5S434 387.9 435 387c.9-.8 6.6-6 12.5-11.5 6-5.5 12.3-11.4 14.1-13 19.2-17.8 23.3-21.6 25.9-23.9 1.7-1.5 7.7-7.2 13.5-12.6 5.8-5.4 11.5-10.7 12.6-11.7 1.2-1 7.2-6.5 13.4-12.3 6.2-5.8 12-11.2 13-12 .9-.8 6.3-5.8 11.9-11 5.6-5.2 10.6-9.5 11-9.5.5 0 5.8 4.5 11.7 10.1 6 5.5 12.1 11.2 13.5 12.5 1.5 1.3 7.3 6.7 13 12 18.1 16.7 21.1 19.4 22.8 20 2.1.7 73.8.5 74.5-.2.4-.3-3.5-4.4-8.6-9-5-4.6-10.3-9.5-11.8-10.9-1.5-1.4-7.4-6.8-13-12-5.7-5.2-11-10.2-11.9-11-.9-.9-7.2-6.7-14.1-13-6.9-6.3-13.9-12.9-15.6-14.5-1.7-1.7-6.5-6-10.6-9.8-4.1-3.7-9.5-8.6-11.9-11-2.5-2.3-9.6-8.9-15.9-14.7-6.2-5.8-12.3-11.4-13.5-12.5-1.1-1.1-4.8-4.5-8.1-7.5s-10.9-10.1-16.9-15.7c-6.1-5.6-11.9-11-13.1-12-1.2-1-7-6.4-13-12-6-5.5-12.2-11.3-13.9-12.9-1.6-1.5-8-7.4-14.2-13.2-6.2-5.7-12.1-11.2-13.1-12.1-1.1-.9-7-6.3-13.2-12.1-6.2-5.8-12.5-11.6-14-13-1.5-1.4-6.9-6.3-11.9-11-5.1-4.7-9.6-8.6-10-8.8-.4-.1-.8 15.6-.8 34.9v35.2l4.1 3.7c2.3 2.1 5.5 5 7.1 6.5 1.7 1.5 8 7.4 14 13 6.1 5.6 12.2 11.3 13.6 12.6 1.5 1.3 7.1 6.5 12.5 11.5 5.5 5.1 11.3 10.4 12.9 11.9 1.7 1.5 7.5 6.9 13 12s12.6 11.7 15.9 14.7l5.8 5.4-4.8 4.6c-2.7 2.5-6.3 5.9-8 7.4-1.7 1.6-8 7.4-14 13-6 5.5-12.1 11.2-13.5 12.5-1.5 1.3-7.2 6.7-12.9 11.9-5.6 5.2-11.7 10.8-13.4 12.5-1.8 1.6-7.9 7.3-13.6 12.5-5.7 5.2-11.5 10.6-13 12-4.4 4.1-24.2 22.4-26.2 24.1-1 .9-7.3 6.8-14.1 13.1-6.7 6.4-13.6 12.7-15.3 14.1l-3 2.6-.3-176.2-.2-176.2-2.3-2c-1.3-1.1-7.1-6.5-13-12S349.5.4 349.2.3c-.4 0-1.4.6-2.3 1.5zm-25 235.3v140.2l-2.7-2.4c-1.4-1.3-5.6-5.2-9.2-8.6-3.6-3.4-7.6-7.1-9-8.3-1.4-1.2-7.4-6.7-13.4-12.3-6-5.6-11.8-11-13-12-1.2-1-7.3-6.7-13.6-12.5-6.3-5.9-14.8-13.8-19-17.6-11.9-11-19.8-18.3-31.6-29.3-6-5.6-12-11.1-13.4-12.3-1.4-1.2-8-7.4-14.8-13.7L170 236.7l3.2-2.9c3.9-3.4 21.4-19.5 31.3-28.8 12.9-12 22.6-21.1 29.6-27.5 12.1-11 29.8-27.3 32.6-30 1.7-1.6 5.1-4.8 7.5-7 2.4-2.2 9.5-8.8 15.8-14.7 6.3-5.8 12.9-11.8 14.5-13.4 1.7-1.5 6.1-5.6 9.8-9 3.8-3.5 7-6.4 7.2-6.4.2 0 .3 63.1.4 140.1z"/></svg>