<?xml version="1.0" standalone="no"?>
<!DOCTYPE svg PUBLIC "-//W3C//DTD SVG 20010904//EN"
 "http://www.w3.org/TR/2001/REC-SVG-20010904/DTD/svg10.dtd">
<svg version="1.0" xmlns="http://www.w3.org/2000/svg"
 width="700.000000pt" height="700.000000pt" viewBox="0 0 700.000000 700.000000"
 preserveAspectRatio="xMidYMid meet">
<metadata>
Created by potrace 1.14, written by Peter Selinger 2001-2017
</metadata>
<g transform="translate(0.000000,700.000000) scale(0.100000,-0.100000)"
fill="#000000" stroke="none">
<path d="M3469 6982 c-8 -10 -47 -46 -85 -82 -154 -143 -297 -276 -308 -285
-6 -5 -70 -64 -141 -130 -71 -66 -135 -124 -141 -130 -7 -5 -36 -33 -65 -60
-30 -28 -90 -84 -134 -125 -44 -40 -110 -101 -146 -134 -36 -34 -90 -83 -120
-111 -30 -27 -88 -81 -129 -120 -41 -38 -127 -117 -189 -175 -63 -58 -131
-121 -152 -140 -20 -19 -61 -57 -90 -84 -30 -27 -103 -94 -163 -150 -60 -56
-116 -108 -126 -116 -9 -8 -68 -62 -130 -120 -62 -58 -125 -116 -140 -130 -27
-24 -232 -215 -254 -235 -6 -6 -67 -62 -136 -125 -69 -63 -137 -126 -151 -140
-31 -29 -96 -89 -239 -222 -58 -53 -119 -109 -136 -125 -16 -15 -83 -77 -148
-138 -65 -60 -122 -111 -127 -113 -5 -2 -9 -8 -9 -13 0 -5 155 -9 378 -9 l377
0 27 23 c24 21 184 168 279 257 48 45 212 197 252 232 l30 28 41 -37 c23 -20
61 -56 86 -79 25 -23 61 -56 80 -74 19 -18 85 -78 145 -135 61 -56 137 -126
169 -156 67 -62 71 -65 232 -214 65 -60 141 -130 168 -155 27 -25 63 -58 81
-75 17 -16 78 -73 135 -125 56 -52 112 -104 124 -115 12 -11 129 -120 261
-242 132 -122 264 -243 292 -270 l53 -50 -2 -1040 -1 -1040 54 -51 c30 -27 70
-64 89 -82 19 -18 79 -73 133 -124 55 -50 111 -102 126 -116 15 -14 53 -49 84
-78 l57 -54 1 799 c0 439 1 1021 1 1293 l1 495 42 40 c54 51 252 234 278 258
12 10 72 66 135 125 63 59 122 113 132 122 9 8 66 60 125 115 60 55 123 114
141 130 192 178 233 216 259 239 17 15 77 72 135 126 58 54 115 107 126 117
12 10 72 65 134 123 62 58 120 112 130 120 9 8 63 58 119 110 56 52 106 95
110 95 5 0 58 -45 117 -101 60 -55 121 -112 135 -125 15 -13 73 -67 130 -120
181 -167 211 -194 228 -200 21 -7 738 -5 745 2 4 3 -35 44 -86 90 -50 46 -103
95 -118 109 -15 14 -74 68 -130 120 -57 52 -110 102 -119 110 -9 9 -72 67
-141 130 -69 63 -139 129 -156 145 -17 17 -65 60 -106 98 -41 37 -95 86 -119
110 -25 23 -96 89 -159 147 -62 58 -123 114 -135 125 -11 11 -48 45 -81 75
-33 30 -109 101 -169 157 -61 56 -119 110 -131 120 -12 10 -70 64 -130 120
-60 55 -122 113 -139 129 -16 15 -80 74 -142 132 -62 57 -121 112 -131 121
-11 9 -70 63 -132 121 -62 58 -125 116 -140 130 -15 14 -69 63 -119 110 -51
47 -96 86 -100 88 -4 1 -8 -156 -8 -349 l0 -352 41 -37 c23 -21 55 -50 71 -65
17 -15 80 -74 140 -130 61 -56 122 -113 136 -126 15 -13 71 -65 125 -115 55
-51 113 -104 129 -119 17 -15 75 -69 130 -120 55 -51 126 -117 159 -147 l58
-54 -48 -46 c-27 -25 -63 -59 -80 -74 -17 -16 -80 -74 -140 -130 -60 -55 -121
-112 -135 -125 -15 -13 -72 -67 -129 -119 -56 -52 -117 -108 -134 -125 -18
-16 -79 -73 -136 -125 -57 -52 -115 -106 -130 -120 -44 -41 -242 -224 -262
-241 -10 -9 -73 -68 -141 -131 -67 -64 -136 -127 -153 -141 l-30 -26 -3 1762
-2 1762 -23 20 c-13 11 -71 65 -130 120 -59 55 -111 101 -114 102 -4 0 -14 -6
-23 -15z m-250 -2353 l0 -1402 -27 24 c-14 13 -56 52 -92 86 -36 34 -76 71
-90 83 -14 12 -74 67 -134 123 -60 56 -118 110 -130 120 -12 10 -73 67 -136
125 -63 59 -148 138 -190 176 -119 110 -198 183 -316 293 -60 56 -120 111
-134 123 -14 12 -80 74 -148 137 l-122 116 32 29 c39 34 214 195 313 288 129
120 226 211 296 275 121 110 298 273 326 300 17 16 51 48 75 70 24 22 95 88
158 147 63 58 129 118 145 134 17 15 61 56 98 90 38 35 70 64 72 64 2 0 3
-631 4 -1401z"/>
</g>
</svg>
