<svg width="20" height="20" viewBox="0 0 20 20" fill="none" xmlns="http://www.w3.org/2000/svg">
<path d="M16.6341 0H3.32684C1.49707 0 0 1.49707 0 3.32684V16.6341C0 18.4639 1.49707 19.961 3.32684 19.961H16.6341C18.4639 19.961 19.961 18.4639 19.961 16.6341V3.32684C19.9609 1.49707 18.4639 0 16.6341 0ZM9.56363 10.1572C8.87082 10.85 7.78195 11.1754 6.5518 11.1754C6.22656 11.1754 5.92965 11.1611 5.70336 11.1187V14.7103H3.9784V5.30715C4.60055 5.19406 5.46313 5.10914 6.6366 5.10914C7.90934 5.10914 8.84258 5.37781 9.45063 5.88691C10.0163 6.35359 10.3838 7.10297 10.3838 7.99379C10.3838 8.89879 10.101 9.64812 9.56363 10.1572ZM13.1829 14.8518C12.3486 14.8518 11.5992 14.6538 11.0901 14.3709L11.4295 13.1125C11.8254 13.3529 12.5748 13.6075 13.197 13.6075C13.9605 13.6075 14.3 13.2964 14.3 12.8438C14.3 12.3773 14.0172 12.1368 13.1687 11.8399C11.8253 11.3732 11.2599 10.638 11.274 9.83199C11.274 8.61594 12.2779 7.66859 13.8757 7.66859C14.6393 7.66859 15.3039 7.8666 15.6997 8.07859L15.3604 9.30879C15.0634 9.13918 14.5119 8.91289 13.9039 8.91289C13.2818 8.91289 12.9424 9.20984 12.9424 9.63398C12.9424 10.0724 13.2677 10.2846 14.1444 10.5956C15.3887 11.048 15.9684 11.6843 15.9826 12.7025C15.9825 13.9468 15.007 14.8518 13.1829 14.8518ZM8.64453 8.06445C8.64453 9.18156 7.85262 9.81785 6.5518 9.81785C6.19832 9.81785 5.91551 9.80371 5.70336 9.74719V6.5232C5.88727 6.48082 6.2266 6.4384 6.70742 6.4384C7.90934 6.4384 8.64453 7.00402 8.64453 8.06445Z" fill="currentColor"/>
</svg>
