<svg width="20" height="20" viewBox="0 0 20 20" fill="none" xmlns="http://www.w3.org/2000/svg">
<path fill-rule="evenodd" clip-rule="evenodd" d="M9 0H7C4.79086 0 3 1.79086 3 4C3 5.19469 3.52376 6.26705 4.35418 7C3.52376 7.73294 3 8.8053 3 10C3 11.1947 3.52376 12.2671 4.35418 13C3.52376 13.7329 3 14.8053 3 16C3 18.2091 4.79086 20 7 20C9.2091 20 11 18.2091 11 16V14V13.4649C11.5883 13.8052 12.2714 14 13 14C15.2091 14 17 12.2091 17 10C17 8.8053 16.4762 7.73295 15.6458 7C16.4762 6.26706 17 5.19469 17 4C17 1.79086 15.2091 0 13 0H11H10H9ZM11 2V6H13C14.1046 6 15 5.10457 15 4C15 2.89543 14.1046 2 13 2H11ZM9 8H7C5.89543 8 5 8.8954 5 10C5 11.1046 5.89543 12 7 12H9V10V8ZM7 6H9V2H7C5.89543 2 5 2.89543 5 4C5 5.10457 5.89543 6 7 6ZM11 10C11 11.1046 11.8954 12 13 12C14.1046 12 15 11.1046 15 10C15 8.8954 14.1046 8 13 8C11.8954 8 11 8.8954 11 10ZM7 14H9V16C9 17.1046 8.1046 18 7 18C5.89543 18 5 17.1046 5 16C5 14.8954 5.89543 14 7 14Z" fill="currentColor"/>
</svg>
