<svg width="20" height="20" viewBox="0 0 20 20" fill="none" xmlns="http://www.w3.org/2000/svg">
<path d="M20 9.94819C20 8.66965 18.6301 7.48243 16.347 6.66052L15.9361 6.52353V6.34088C16.4384 3.82947 16.0731 1.95732 14.9315 1.27239C13.79 0.587458 12.1005 1.22673 10.274 2.8249L10 3.09887L9.90867 3.00755H9.81735C7.9452 1.27239 6.11872 0.678782 4.97717 1.31805C3.83562 1.95732 3.51598 3.73814 3.9726 6.06691C4.02064 6.21506 4.05129 6.3683 4.06393 6.52353L3.56164 6.70618C1.3242 7.48243 0 8.66965 0 9.94819C0 11.2267 1.46119 12.5053 3.74429 13.3272L4.06393 13.4185C4.00751 13.5802 3.9767 13.7496 3.9726 13.9208C3.51598 16.2039 3.92694 17.9391 4.97717 18.5783C6.0274 19.2176 7.9452 18.624 9.77169 17.0258L10.0457 16.7975L10.411 17.1628C11.6895 18.2587 12.968 18.8523 13.9726 18.8523C14.3269 18.8604 14.676 18.7652 14.9772 18.5783C16.1187 17.9391 16.5297 16.0669 16.0274 13.6925V13.6012C16.0077 13.526 15.9924 13.4498 15.9817 13.3728H16.1187C18.5388 12.5053 20 11.2724 20 9.94819ZM18.6758 9.94819C18.6758 10.4961 17.6712 11.455 15.7078 12.0943H15.6164C15.3771 11.3598 15.0872 10.6427 14.7489 9.94819C15.0685 9.2176 15.3425 8.487 15.5708 7.80207L15.9361 7.89339C17.7626 8.53266 18.6758 9.40024 18.6758 9.94819ZM11.2785 16.1582L10.9132 15.8843C11.4361 15.3049 11.924 14.695 12.3744 14.0578L14.7032 13.6925C14.7489 13.7838 14.7489 13.8751 14.7945 13.9208C14.9572 14.7479 14.9881 15.5955 14.8858 16.4322C14.8217 16.8324 14.6294 17.2009 14.3379 17.4824C13.8813 17.7564 12.6484 17.3911 11.2785 16.1582ZM10.6849 14.1491L10.0457 14.971L9.31507 14.1491H10.6849ZM4.42922 7.75641C4.65873 8.50924 4.94887 9.24223 5.2968 9.94819C4.94859 10.6698 4.65847 11.4179 4.42922 12.1856L4.15525 12.0943C3.35564 11.8419 2.61168 11.439 1.96347 10.9071C1.79562 10.801 1.65197 10.6608 1.54183 10.4956C1.4317 10.3304 1.35755 10.1439 1.3242 9.94819C1.3242 9.40024 2.23744 8.53266 3.9726 7.93906L4.42922 7.75641ZM9.31507 5.74728L10 4.97102L10.6849 5.74728H9.31507ZM14.3379 2.41394C14.8402 2.68791 15.1142 4.05778 14.7032 6.06691C14.7053 6.09165 14.7023 6.11655 14.6945 6.14011C14.6866 6.16366 14.6741 6.18536 14.6575 6.2039L12.3744 5.8386C11.924 5.20134 11.4361 4.59144 10.9132 4.01212L11.1872 3.7838C12.6484 2.50527 13.8356 2.13997 14.3379 2.41394ZM6.71233 7.25412L6.34703 7.84773L6.0274 8.44134C5.89041 8.1217 5.79909 7.80207 5.6621 7.43677L6.71233 7.25412ZM5.6621 12.4596C5.79909 12.14 5.89041 11.8203 6.0274 11.455L6.34703 12.0486L6.71233 12.6423L5.6621 12.4596ZM13.2877 9.94819C13.0553 10.4488 12.7962 10.9366 12.5114 11.4094C12.2374 11.9117 11.9178 12.3683 11.6438 12.8249H8.35616C8.03653 12.3226 7.71689 11.866 7.48858 11.4094C7.20156 10.9379 6.94237 10.45 6.71233 9.94819C6.93389 9.44226 7.19338 8.95381 7.48858 8.487C7.75093 8.01392 8.04061 7.55652 8.35616 7.11714C9.45015 7.02587 10.5498 7.02587 11.6438 7.11714C11.9635 7.57376 12.2374 8.03038 12.5114 8.487C12.8066 8.95381 13.0661 9.44226 13.2877 9.94819ZM13.653 7.84773L13.2877 7.25412L14.3379 7.48244C14.2362 7.80937 14.1142 8.12962 13.9726 8.44134L13.653 7.84773ZM13.2877 12.6423L13.653 12.0486L13.9726 11.4094L14.3836 12.4596L13.2877 12.6423ZM9.04109 3.96645H9.08676L7.62557 5.79294L5.34247 6.15823C5.2968 6.02125 5.2968 5.92992 5.25114 5.79294C4.88584 3.92079 5.15982 2.64225 5.61644 2.41394C5.73767 2.33432 5.88385 2.30183 6.0274 2.32262C6.66667 2.32262 7.76256 2.77924 8.99543 3.87513L9.04109 3.96645ZM5.25114 14.1491C5.25947 14.0081 5.2903 13.8694 5.34247 13.7381L7.67123 14.0578C8.11023 14.7035 8.59877 15.3142 9.13242 15.8843L9.04109 15.9756L8.94977 16.0669C8.32724 16.6436 7.59827 17.0934 6.80365 17.3911C6.62933 17.4824 6.43836 17.5376 6.2422 17.5533C6.04603 17.569 5.84872 17.5449 5.6621 17.4824C5.15982 17.2085 4.88584 15.9756 5.25114 14.1491Z" fill="currentColor"/>
<path d="M9.99999 7.939C9.6008 7.92992 9.20796 8.04 8.87161 8.25517C8.53525 8.47035 8.27065 8.78087 8.11155 9.1471C7.95246 9.51333 7.9061 9.91865 7.97839 10.3113C8.05068 10.704 8.23834 11.0663 8.51742 11.3519C8.7965 11.6374 9.15433 11.8334 9.54526 11.9147C9.93619 11.996 10.3425 11.9589 10.7123 11.8083C11.0821 11.6577 11.3986 11.4003 11.6214 11.0689C11.8443 10.7376 11.9634 10.3474 11.9635 9.94813C11.9636 9.42309 11.7582 8.91886 11.3912 8.54336C11.0243 8.16786 10.5249 7.95093 9.99999 7.939Z" fill="currentColor"/>
</svg>
