<svg width="21" height="21" viewBox="0 0 21 21" fill="none" xmlns="http://www.w3.org/2000/svg">
<path d="M11.5034 9.8202H9.6302C9.6302 11.4354 9.62287 13.0405 9.62287 14.6576C9.64487 14.877 9.65688 15.1325 9.65688 15.3905C9.65688 15.9307 9.60286 16.4582 9.4995 16.9677L9.50817 16.917C9.23342 17.4912 8.52454 17.4178 8.20311 17.3171C7.90235 17.1557 7.66428 16.911 7.51557 16.6136L7.51157 16.6042C7.48223 16.5415 7.44688 16.4882 7.40487 16.4402L7.40554 16.4409L5.88441 17.3785C6.12915 17.9053 6.50727 18.3348 6.97607 18.6355L6.98808 18.6428C7.4969 18.9276 8.10508 19.095 8.75194 19.095C9.0747 19.095 9.38813 19.053 9.68622 18.9749L9.66088 18.9809C10.3197 18.8156 10.8566 18.3874 11.164 17.8179L11.17 17.8053C11.4094 17.1957 11.5474 16.4895 11.5474 15.7513C11.5474 15.4926 11.5301 15.2378 11.4974 14.9878L11.5008 15.0171C11.5108 13.3052 11.5008 11.5927 11.5008 9.86755L11.5034 9.8202ZM18.9897 15.858C18.8436 14.9457 18.2495 14.1788 16.4869 13.464C15.8734 13.1765 15.1919 12.9765 14.9891 12.5137C14.9471 12.4083 14.9231 12.2863 14.9231 12.1589C14.9231 12.0762 14.9331 11.9962 14.9525 11.9195L14.9511 11.9262C15.0898 11.5594 15.4386 11.3026 15.8467 11.3026C15.9794 11.3026 16.1055 11.3293 16.2195 11.378L16.2135 11.3753C16.5816 11.502 16.8724 11.7715 17.0238 12.1169L17.0271 12.1256C17.8887 11.5621 17.8887 11.5621 18.4895 11.1879C18.3455 10.9419 18.1834 10.7285 18 10.5364L18.0014 10.5377C17.4899 9.99492 16.7663 9.65748 15.9634 9.65748C15.8494 9.65748 15.7367 9.66415 15.6267 9.67749L15.64 9.67616L15.0525 9.75018C14.4817 9.87955 13.9942 10.1763 13.6301 10.5851L13.6281 10.5878C13.2713 11.0312 13.0552 11.6007 13.0552 12.2209C13.0552 13.0738 13.464 13.8314 14.0955 14.3089L14.1022 14.3135C15.2399 15.1638 16.9031 15.3505 17.1158 16.1508C17.3158 17.1257 16.3909 17.4385 15.4773 17.3258C14.8391 17.1804 14.3163 16.7723 14.0209 16.2241L14.0149 16.2128L12.4897 17.0884C12.6691 17.4458 12.8945 17.7512 13.1639 18.012L13.1646 18.0127C14.6144 19.4758 18.2395 19.4011 18.8903 17.1757C18.9657 16.933 19.009 16.6542 19.009 16.3655C19.009 16.1654 18.9883 15.97 18.9483 15.782L18.9517 15.8007L18.9897 15.858ZM0.627502 0.627441H20.6275V20.6274H0.627502V0.627441Z" fill="currentColor"/>
</svg>
