<svg width="26" height="26" viewBox="0 0 26 26" fill="none" xmlns="http://www.w3.org/2000/svg">
<path d="M12.87 9.90175C14.2567 9.96675 14.6142 11.1476 14.6358 11.7001H16.575C16.4883 9.55508 14.9608 8.24425 12.8375 8.24425C10.4433 8.24425 8.66666 9.75008 8.66666 13.1517C8.66666 15.2534 9.67416 17.7451 12.8267 17.7451C15.2317 17.7451 16.5208 15.9576 16.5533 14.5492H14.6142C14.5817 15.1884 14.1267 16.0442 12.8483 16.1092C11.4292 16.0659 10.8333 14.9609 10.8333 13.1517C10.8333 10.0209 12.22 9.92341 12.87 9.90175ZM13 2.16675C7.01999 2.16675 2.16666 7.02008 2.16666 13.0001C2.16666 18.9801 7.01999 23.8334 13 23.8334C18.98 23.8334 23.8333 18.9801 23.8333 13.0001C23.8333 7.02008 18.98 2.16675 13 2.16675ZM13 21.6667C8.22249 21.6667 4.33332 17.7776 4.33332 13.0001C4.33332 8.22258 8.22249 4.33341 13 4.33341C17.7775 4.33341 21.6667 8.22258 21.6667 13.0001C21.6667 17.7776 17.7775 21.6667 13 21.6667Z" fill="currentColor"/>
</svg>
